<?xml version="1.0" encoding="utf-8"?>
<COLLADA xmlns="http://www.collada.org/2005/11/COLLADASchema" version="1.4.1" xmlns:xsi="http://www.w3.org/2001/XMLSchema-instance">
  <asset>
    <contributor>
      <author>Blender User</author>
      <authoring_tool>Blender 4.2.5 LTS commit date:2024-12-16, commit time:19:54, hash:27be13ad2d5a</authoring_tool>
    </contributor>
    <created>2025-05-01T21:41:24</created>
    <modified>2025-05-01T21:41:24</modified>
    <unit name="meter" meter="1"/>
    <up_axis>Z_UP</up_axis>
  </asset>
  <library_effects>
    <effect id="Eyes-effect">
      <profile_COMMON>
        <newparam sid="mario_eyes_center_edit_png-surface">
          <surface type="2D">
            <init_from>mario_eyes_center_edit_png</init_from>
          </surface>
        </newparam>
        <newparam sid="mario_eyes_center_edit_png-sampler">
          <sampler2D>
            <source>mario_eyes_center_edit_png-surface</source>
          </sampler2D>
        </newparam>
        <technique sid="common">
          <lambert>
            <emission>
              <color sid="emission">0 0 0 1</color>
            </emission>
            <diffuse>
              <texture texture="mario_eyes_center_edit_png-sampler" texcoord="UVMap"/>
            </diffuse>
            <index_of_refraction>
              <float sid="ior">1.5</float>
            </index_of_refraction>
          </lambert>
        </technique>
      </profile_COMMON>
    </effect>
    <effect id="Mustache-effect">
      <profile_COMMON>
        <newparam sid="mario_mustache_edit_png-surface">
          <surface type="2D">
            <init_from>mario_mustache_edit_png</init_from>
          </surface>
        </newparam>
        <newparam sid="mario_mustache_edit_png-sampler">
          <sampler2D>
            <source>mario_mustache_edit_png-surface</source>
          </sampler2D>
        </newparam>
        <technique sid="common">
          <lambert>
            <emission>
              <color sid="emission">0 0 0 1</color>
            </emission>
            <diffuse>
              <texture texture="mario_mustache_edit_png-sampler" texcoord="UVMap"/>
            </diffuse>
            <index_of_refraction>
              <float sid="ior">1.5</float>
            </index_of_refraction>
          </lambert>
        </technique>
      </profile_COMMON>
    </effect>
    <effect id="Hair-effect">
      <profile_COMMON>
        <newparam sid="hair_png-surface">
          <surface type="2D">
            <init_from>hair_png</init_from>
          </surface>
        </newparam>
        <newparam sid="hair_png-sampler">
          <sampler2D>
            <source>hair_png-surface</source>
          </sampler2D>
        </newparam>
        <technique sid="common">
          <lambert>
            <emission>
              <color sid="emission">0 0 0 1</color>
            </emission>
            <diffuse>
              <texture texture="hair_png-sampler" texcoord="UVMap"/>
            </diffuse>
            <index_of_refraction>
              <float sid="ior">1.5</float>
            </index_of_refraction>
          </lambert>
        </technique>
      </profile_COMMON>
    </effect>
    <effect id="Overalls-effect">
      <profile_COMMON>
        <newparam sid="mario_overalls_button_edit_png-surface">
          <surface type="2D">
            <init_from>mario_overalls_button_edit_png</init_from>
          </surface>
        </newparam>
        <newparam sid="mario_overalls_button_edit_png-sampler">
          <sampler2D>
            <source>mario_overalls_button_edit_png-surface</source>
          </sampler2D>
        </newparam>
        <technique sid="common">
          <lambert>
            <emission>
              <color sid="emission">0 0 0 1</color>
            </emission>
            <diffuse>
              <texture texture="mario_overalls_button_edit_png-sampler" texcoord="UVMap"/>
            </diffuse>
            <index_of_refraction>
              <float sid="ior">1.5</float>
            </index_of_refraction>
          </lambert>
        </technique>
      </profile_COMMON>
    </effect>
    <effect id="Logo-effect">
      <profile_COMMON>
        <newparam sid="mario_logo_edit_png-surface">
          <surface type="2D">
            <init_from>mario_logo_edit_png</init_from>
          </surface>
        </newparam>
        <newparam sid="mario_logo_edit_png-sampler">
          <sampler2D>
            <source>mario_logo_edit_png-surface</source>
          </sampler2D>
        </newparam>
        <technique sid="common">
          <lambert>
            <emission>
              <color sid="emission">0 0 0 1</color>
            </emission>
            <diffuse>
              <texture texture="mario_logo_edit_png-sampler" texcoord="UVMap"/>
            </diffuse>
            <index_of_refraction>
              <float sid="ior">1.5</float>
            </index_of_refraction>
          </lambert>
        </technique>
      </profile_COMMON>
    </effect>
    <effect id="Gloves-effect">
      <profile_COMMON>
        <newparam sid="white_png-surface">
          <surface type="2D">
            <init_from>white_png</init_from>
          </surface>
        </newparam>
        <newparam sid="white_png-sampler">
          <sampler2D>
            <source>white_png-surface</source>
          </sampler2D>
        </newparam>
        <technique sid="common">
          <lambert>
            <emission>
              <color sid="emission">0 0 0 1</color>
            </emission>
            <diffuse>
              <texture texture="white_png-sampler" texcoord="UVMap"/>
            </diffuse>
            <index_of_refraction>
              <float sid="ior">1.5</float>
            </index_of_refraction>
          </lambert>
        </technique>
      </profile_COMMON>
    </effect>
    <effect id="Shoes-effect">
      <profile_COMMON>
        <newparam sid="shoe_png-surface">
          <surface type="2D">
            <init_from>shoe_png</init_from>
          </surface>
        </newparam>
        <newparam sid="shoe_png-sampler">
          <sampler2D>
            <source>shoe_png-surface</source>
          </sampler2D>
        </newparam>
        <technique sid="common">
          <lambert>
            <emission>
              <color sid="emission">0 0 0 1</color>
            </emission>
            <diffuse>
              <texture texture="shoe_png-sampler" texcoord="UVMap"/>
            </diffuse>
            <index_of_refraction>
              <float sid="ior">1.5</float>
            </index_of_refraction>
          </lambert>
        </technique>
      </profile_COMMON>
    </effect>
    <effect id="Wing-effect">
      <profile_COMMON>
        <technique sid="common">
          <lambert>
            <emission>
              <color sid="emission">0 0 0 1</color>
            </emission>
            <diffuse>
              <color sid="diffuse">0.8 0.8 0.8 1</color>
            </diffuse>
            <reflectivity>
              <float sid="specular">0.5</float>
            </reflectivity>
          </lambert>
        </technique>
      </profile_COMMON>
    </effect>
    <effect id="Wing2-effect">
      <profile_COMMON>
        <technique sid="common">
          <lambert>
            <emission>
              <color sid="emission">0 0 0 1</color>
            </emission>
            <diffuse>
              <color sid="diffuse">0.8 0.8 0.8 1</color>
            </diffuse>
            <reflectivity>
              <float sid="specular">0.5</float>
            </reflectivity>
          </lambert>
        </technique>
      </profile_COMMON>
    </effect>
  </library_effects>
  <library_images>
    <image id="hair_png" name="hair_png">
      <init_from>hair.png</init_from>
    </image>
    <image id="mario_eyes_center_edit_png" name="mario_eyes_center_edit_png">
      <init_from>mario_eyes_center_edit.png</init_from>
    </image>
    <image id="mario_logo_edit_png" name="mario_logo_edit_png">
      <init_from>mario_logo_edit.png</init_from>
    </image>
    <image id="mario_mustache_edit_png" name="mario_mustache_edit_png">
      <init_from>mario_mustache_edit.png</init_from>
    </image>
    <image id="mario_overalls_button_edit_png" name="mario_overalls_button_edit_png">
      <init_from>mario_overalls_button_edit.png</init_from>
    </image>
    <image id="shoe_png" name="shoe_png">
      <init_from>shoe.png</init_from>
    </image>
    <image id="white_png" name="white_png">
      <init_from>white.png</init_from>
    </image>
  </library_images>
  <library_materials>
    <material id="Eyes-material" name="Eyes">
      <instance_effect url="#Eyes-effect"/>
    </material>
    <material id="Mustache-material" name="Mustache">
      <instance_effect url="#Mustache-effect"/>
    </material>
    <material id="Hair-material" name="Hair">
      <instance_effect url="#Hair-effect"/>
    </material>
    <material id="Overalls-material" name="Overalls">
      <instance_effect url="#Overalls-effect"/>
    </material>
    <material id="Logo-material" name="Logo">
      <instance_effect url="#Logo-effect"/>
    </material>
    <material id="Gloves-material" name="Gloves">
      <instance_effect url="#Gloves-effect"/>
    </material>
    <material id="Shoes-material" name="Shoes">
      <instance_effect url="#Shoes-effect"/>
    </material>
    <material id="Wing-material" name="Wing">
      <instance_effect url="#Wing-effect"/>
    </material>
    <material id="Wing2-material" name="Wing2">
      <instance_effect url="#Wing2-effect"/>
    </material>
  </library_materials>
  <library_geometries>
    <geometry id="LowPolyMario_003-mesh" name="LowPolyMario.003">
      <mesh>
        <source id="LowPolyMario_003-mesh-positions">
          <float_array id="LowPolyMario_003-mesh-positions-array" count="36">0.9212036 0.5639439 2.098806 0.6674042 1.217244 2.808506 0.5922041 0.2396439 2.282106 0.3431044 0.8929439 2.991806 -0.921196 0.5639436 2.098807 0.01880359 0.5686438 3.175106 -0.6673956 1.217243 2.808506 -0.3430958 0.8929435 2.991806 0.2679043 -0.08465611 2.465406 -0.01879596 0.5686435 3.175106 -0.5921955 0.2396435 2.282106 -0.2678957 -0.08465635 2.465406</float_array>
          <technique_common>
            <accessor source="#LowPolyMario_003-mesh-positions-array" count="12" stride="3">
              <param name="X" type="float"/>
              <param name="Y" type="float"/>
              <param name="Z" type="float"/>
            </accessor>
          </technique_common>
        </source>
        <source id="LowPolyMario_003-mesh-normals">
          <float_array id="LowPolyMario_003-mesh-normals-array" count="33">0.7111145 0.3749513 -0.5947501 0.7111147 0.3749512 -0.59475 0.7092557 0.3757356 -0.5964722 0.7095661 0.3756049 -0.5961853 0.7058429 0.3771634 -0.5996114 0.7111142 -0.3749518 0.5947502 0.7111146 -0.3749506 0.5947504 0.7092562 -0.3757353 0.5964718 0.7111143 -0.3749519 0.59475 0.7095666 -0.3756049 0.5961848 0.7058446 -0.3771627 0.5996097</float_array>
          <technique_common>
            <accessor source="#LowPolyMario_003-mesh-normals-array" count="11" stride="3">
              <param name="X" type="float"/>
              <param name="Y" type="float"/>
              <param name="Z" type="float"/>
            </accessor>
          </technique_common>
        </source>
        <source id="LowPolyMario_003-mesh-map-0">
          <float_array id="LowPolyMario_003-mesh-map-0-array" count="48">1.39773e-4 0.9988589 1.39773e-4 1.40905e-4 0.9952624 0.001141309 1.39773e-4 0.9988589 0.9952624 0.001141309 0.9952618 0.9998592 1.41072e-4 3.24508e-4 0.9951724 0.9998589 1.41116e-4 0.9988588 1.41072e-4 3.24508e-4 0.9982792 1.4114e-4 0.9951724 0.9998589 -0.004455208 0.998929 -0.004455327 7.03931e-5 0.9907369 0.001070797 -0.004455208 0.998929 0.9907369 0.001070797 0.9907366 0.9999296 -0.001438498 3.24606e-4 0.9935929 0.9998589 -0.001438498 0.9988589 -0.001438498 3.24606e-4 0.9966995 1.41178e-4 0.9935929 0.9998589</float_array>
          <technique_common>
            <accessor source="#LowPolyMario_003-mesh-map-0-array" count="24" stride="2">
              <param name="S" type="float"/>
              <param name="T" type="float"/>
            </accessor>
          </technique_common>
        </source>
        <vertices id="LowPolyMario_003-mesh-vertices">
          <input semantic="POSITION" source="#LowPolyMario_003-mesh-positions"/>
        </vertices>
        <triangles material="Wing-material" count="4">
          <input semantic="VERTEX" source="#LowPolyMario_003-mesh-vertices" offset="0"/>
          <input semantic="NORMAL" source="#LowPolyMario_003-mesh-normals" offset="1"/>
          <input semantic="TEXCOORD" source="#LowPolyMario_003-mesh-map-0" offset="2" set="0"/>
          <p>9 0 0 11 1 1 10 2 2 9 0 3 10 2 4 7 0 5 5 5 12 8 6 13 2 7 14 5 5 15 2 7 16 3 8 17</p>
        </triangles>
        <triangles material="Wing2-material" count="4">
          <input semantic="VERTEX" source="#LowPolyMario_003-mesh-vertices" offset="0"/>
          <input semantic="NORMAL" source="#LowPolyMario_003-mesh-normals" offset="1"/>
          <input semantic="TEXCOORD" source="#LowPolyMario_003-mesh-map-0" offset="2" set="0"/>
          <p>10 2 6 6 3 7 7 0 8 10 2 9 4 4 10 6 3 11 2 7 18 1 9 19 3 8 20 2 7 21 0 10 22 1 9 23</p>
        </triangles>
      </mesh>
    </geometry>
    <geometry id="LowPolyMario_002-mesh" name="LowPolyMario.002">
      <mesh>
        <source id="LowPolyMario_002-mesh-positions">
          <float_array id="LowPolyMario_002-mesh-positions-array" count="69">0.3713036 0.3994435 1.647532 3.8147e-6 -0.2726563 1.591133 -0.1503963 -0.6862563 2.056432 3.8147e-6 -0.7191562 1.849632 0.1551036 -0.6862563 2.056432 0.4653034 -0.1833564 1.774432 0.1551036 -0.4747563 2.028233 0.4324036 -0.1269564 2.300832 -0.1503963 -0.4747561 2.028233 3.8147e-6 -0.5311562 1.821433 3.8147e-6 -0.3713563 2.404232 -0.0422964 -0.3713563 2.432432 -0.2443962 -0.2256562 2.893032 0.2491035 -0.2256562 2.893032 -0.4605961 -0.1833561 1.774433 -0.6438961 0.4088438 2.314932 0.6486044 0.4088434 2.314932 3.8147e-6 0.7754435 2.075232 -0.4276962 -0.1269562 2.300832 -0.3759956 0.5357437 1.887233 3.8147e-6 -0.7238563 2.437132 -0.3665962 0.3994436 1.647532 0.3807039 0.5357434 1.887233</float_array>
          <technique_common>
            <accessor source="#LowPolyMario_002-mesh-positions-array" count="23" stride="3">
              <param name="X" type="float"/>
              <param name="Y" type="float"/>
              <param name="Z" type="float"/>
            </accessor>
          </technique_common>
        </source>
        <source id="LowPolyMario_002-mesh-normals">
          <float_array id="LowPolyMario_002-mesh-normals-array" count="69">0.4412046 -0.3115983 0.8415729 -0.0892409 -0.5830919 0.8074898 0.8579269 -0.5067447 0.08468431 -0.4355454 -0.2985349 0.8492215 -0.8661649 -0.4941583 0.07460671 -0.001230299 -0.701415 -0.7127521 0.646775 -0.7263211 0.2326797 -0.6484595 -0.7232781 0.2374219 -0.8463656 -0.336387 -0.4129275 -0.005965471 -0.6404848 -0.7679478 -0.001775681 -0.3869082 -0.9221165 0.8453235 -0.3372219 -0.4143787 0.7463506 -0.4915532 0.4487051 -0.006043314 -0.6827575 -0.7306201 -0.7433272 -0.4911914 0.4540878 0.5814508 0.4211456 -0.6960973 -0.5814265 0.4214792 -0.6959156 0.8971471 0.3804498 0.224466 -0.8973118 0.379886 0.2247626 0.6511589 0.6397996 -0.4082263 -0.00146985 0.9992173 0.03953099 -0.6514239 0.6385074 -0.4098233 0.09317392 -0.9902336 0.1037125</float_array>
          <technique_common>
            <accessor source="#LowPolyMario_002-mesh-normals-array" count="23" stride="3">
              <param name="X" type="float"/>
              <param name="Y" type="float"/>
              <param name="Z" type="float"/>
            </accessor>
          </technique_common>
        </source>
        <source id="LowPolyMario_002-mesh-map-0">
          <float_array id="LowPolyMario_002-mesh-map-0-array" count="252">0.8828125 1 0.4414063 0.203125 1.208984 0.06054687 -0.001953125 1 -0.3261719 0.06054687 0.4414063 0.203125 -0.001953125 1 0.4414063 0.203125 0.8828125 1 1.285156 0.7929688 0.4472656 0.9335938 0.7441406 0.03320312 0.1503906 0.03320312 0.4472656 0.9335938 -0.3886719 0.7929688 0.1503906 0.03320312 0.7441406 0.03320312 0.4472656 0.9335938 0.3886719 0.7910156 1.375 1.537109 1.275391 0.2851563 1.275391 0.2851563 0.009765625 0.21875 0.3886719 0.7910156 1.275391 0.2851563 0.2929688 -0.421875 0.009765625 0.21875 0.2871094 0.7480469 0.03320312 0.1796875 1.283203 0.3808594 1.283203 0.3808594 1.105469 1.542969 0.2871094 0.7480469 0.03320312 0.1796875 0.4589844 -0.3789063 1.283203 0.3808594 0 1 0 1 0 1 0 1 0 1 0 1 0 1 0 1 0 1 0 1 0 1 0 1 0 1 0 1 0 1 0 1 0 1 0 1 0 1 0 1 0 1 0 1 0 1 0 1 0 1 0 1 0 1 0 1 0 1 0 1 0 1 0 1 0 1 0 1 0 1 0 1 0 1 0 1 0 1 0 1 0 1 0 1 0 1 0 1 0 1 0 1 0 1 0 1 0 1 0 1 0 1 0 1 0 1 0 1 0 1 0 1 0 1 0 1 0 1 0 1 0 1 0 1 0 1 0 1 0 1 0 1 0 1 0 1 0 1 0 1 0 1 0 1 0 1 0 1 0 1 0 1 0 1 0 1 0 1 0 1 0 1 0 1 0 1 0 1 0 1 0 1 0 1 0 1 0 1 0 1</float_array>
          <technique_common>
            <accessor source="#LowPolyMario_002-mesh-map-0-array" count="126" stride="2">
              <param name="S" type="float"/>
              <param name="T" type="float"/>
            </accessor>
          </technique_common>
        </source>
        <vertices id="LowPolyMario_002-mesh-vertices">
          <input semantic="POSITION" source="#LowPolyMario_002-mesh-positions"/>
        </vertices>
        <triangles material="Eyes-material" count="15">
          <input semantic="VERTEX" source="#LowPolyMario_002-mesh-vertices" offset="0"/>
          <input semantic="NORMAL" source="#LowPolyMario_002-mesh-normals" offset="1"/>
          <input semantic="TEXCOORD" source="#LowPolyMario_002-mesh-map-0" offset="2" set="0"/>
          <p>7 2 9 10 5 10 6 6 11 8 7 12 10 5 13 18 4 14 8 7 15 6 6 16 10 5 17 4 12 36 3 13 37 9 9 38 6 6 39 4 12 40 9 9 41 9 9 42 3 13 43 2 14 44 9 9 45 2 14 46 8 7 47 2 14 48 3 13 49 4 12 50 2 14 51 4 12 52 6 6 53 8 7 54 2 14 55 6 6 56 5 11 57 1 10 58 0 15 59 7 2 60 5 11 61 0 15 62 0 15 63 1 10 64 21 16 65 21 16 66 1 10 67 14 8 68 21 16 69 14 8 70 18 4 71</p>
        </triangles>
        <triangles material="Mustache-material" count="6">
          <input semantic="VERTEX" source="#LowPolyMario_002-mesh-vertices" offset="0"/>
          <input semantic="NORMAL" source="#LowPolyMario_002-mesh-normals" offset="1"/>
          <input semantic="TEXCOORD" source="#LowPolyMario_002-mesh-map-0" offset="2" set="0"/>
          <p>8 7 18 18 4 19 14 8 20 14 8 21 9 9 22 8 7 23 14 8 24 1 10 25 9 9 26 6 6 27 9 9 28 5 11 29 5 11 30 7 2 31 6 6 32 9 9 33 1 10 34 5 11 35</p>
        </triangles>
        <triangles material="Hair-material" count="4">
          <input semantic="VERTEX" source="#LowPolyMario_002-mesh-vertices" offset="0"/>
          <input semantic="NORMAL" source="#LowPolyMario_002-mesh-normals" offset="1"/>
          <input semantic="TEXCOORD" source="#LowPolyMario_002-mesh-map-0" offset="2" set="0"/>
          <p>22 19 114 0 15 115 21 16 116 22 19 117 21 16 118 19 21 119 7 2 120 0 15 121 22 19 122 19 21 123 21 16 124 18 4 125</p>
        </triangles>
        <triangles material="Logo-material" count="17">
          <input semantic="VERTEX" source="#LowPolyMario_002-mesh-vertices" offset="0"/>
          <input semantic="NORMAL" source="#LowPolyMario_002-mesh-normals" offset="1"/>
          <input semantic="TEXCOORD" source="#LowPolyMario_002-mesh-map-0" offset="2" set="0"/>
          <p>13 0 0 11 1 1 7 2 2 12 3 3 18 4 4 11 1 5 12 3 6 11 1 7 13 0 8 12 3 72 13 0 73 16 17 74 18 4 75 12 3 76 15 18 77 15 18 78 12 3 79 16 17 80 16 17 81 13 0 82 7 2 83 22 19 84 16 17 85 7 2 86 22 19 87 17 20 88 16 17 89 17 20 90 15 18 91 16 17 92 18 4 93 15 18 94 19 21 95 15 18 96 17 20 97 19 21 98 10 5 99 20 22 100 18 4 101 20 22 102 11 1 103 18 4 104 19 21 105 17 20 106 22 19 107 20 22 108 7 2 109 11 1 110 20 22 111 10 5 112 7 2 113</p>
        </triangles>
      </mesh>
    </geometry>
    <geometry id="LowPolyMario_001-mesh" name="LowPolyMario.001">
      <mesh>
        <source id="LowPolyMario_001-mesh-positions">
          <float_array id="LowPolyMario_001-mesh-positions-array" count="72">6.67572e-5 -0.3685768 2.401547 6.67572e-5 -0.2698767 1.588437 6.67572e-5 -0.5283767 1.818723 0.4653664 -0.1805769 1.771726 -0.1503334 -0.4719768 2.02551 6.67572e-5 -0.7163767 1.846921 -0.1503334 -0.6834768 2.053708 0.1551666 -0.6834768 2.053708 0.1551666 -0.4719768 2.02551 -0.3665333 0.4022231 1.644834 -0.4605332 -0.1805767 1.771726 0.3807669 0.538523 1.884518 0.3713665 0.4022229 1.644834 -0.3759327 0.5385231 1.884519 6.67572e-5 0.641923 2.034909 -0.4276333 -0.1241768 2.298093 -0.3806324 0.5714231 2.396848 -0.3759327 0.1343232 2.51434 -0.004632949 0.181323 2.660031 0.3619671 0.571423 2.396848 0.3666668 0.134323 2.51434 0.2491664 -0.2228769 2.636533 0.4324665 -0.124177 2.298093 -0.2443332 -0.2228768 2.636533</float_array>
          <technique_common>
            <accessor source="#LowPolyMario_001-mesh-positions-array" count="24" stride="3">
              <param name="X" type="float"/>
              <param name="Y" type="float"/>
              <param name="Z" type="float"/>
            </accessor>
          </technique_common>
        </source>
        <source id="LowPolyMario_001-mesh-normals">
          <float_array id="LowPolyMario_001-mesh-normals-array" count="72">0.9117741 -0.3533144 0.2093731 -0.003264904 -0.93594 0.3521444 0.646774 -0.7263282 0.2326601 -0.6484586 -0.7232853 0.2374026 -0.9098302 -0.3647426 0.197919 -0.8463628 -0.3363845 -0.4129353 -0.00596553 -0.6404572 -0.7679708 -0.001775622 -0.3868951 -0.9221221 0.8453209 -0.3372192 -0.4143862 -0.7433348 -0.4911916 0.4540749 -0.006043434 -0.6827607 -0.7306172 0.7463582 -0.4915537 0.448692 0.5814511 0.4211357 -0.696103 -0.5814268 0.4214695 -0.6959213 0.6794863 0.6855049 -0.2614987 0.6053566 0.6600118 0.4448907 -0.6762408 0.6836043 -0.274561 0.001131296 0.98111 -0.1934472 -0.624539 0.6511762 0.4311851 -0.478532 -0.5199435 0.7075775 -0.7719519 0.08616012 0.6298148 -6.89297e-4 0.2546455 0.9670343 0.4851219 -0.5140896 0.7073674 0.7626457 0.1097101 0.6374444</float_array>
          <technique_common>
            <accessor source="#LowPolyMario_001-mesh-normals-array" count="24" stride="3">
              <param name="X" type="float"/>
              <param name="Y" type="float"/>
              <param name="Z" type="float"/>
            </accessor>
          </technique_common>
        </source>
        <source id="LowPolyMario_001-mesh-map-0">
          <float_array id="LowPolyMario_001-mesh-map-0-array" count="264">1.285156 0.7929688 0.4472656 0.9335938 0.7441406 0.03320312 0.1503906 0.03320312 0.4472656 0.9335938 -0.3886719 0.7929688 0.1503906 0.03320312 0.7441406 0.03320312 0.4472656 0.9335938 1.275391 0.2851563 0.009765625 0.21875 0.3886719 0.7910156 1.275391 0.2851563 0.2929688 -0.421875 0.009765625 0.21875 0.3886719 0.7910156 1.375 1.537109 1.275391 0.2851563 0.2871094 0.7480469 0.03320312 0.1796875 1.283203 0.3808594 0.03320312 0.1796875 0.4589844 -0.3789063 1.283203 0.3808594 1.283203 0.3808594 1.105469 1.542969 0.2871094 0.7480469 0 1 0 1 0 1 0 1 0 1 0 1 0 1 0 1 0 1 0 1 0 1 0 1 0 1 0 1 0 1 0 1 0 1 0 1 0 1 0 1 0 1 0 1 0 1 0 1 0 1 0 1 0 1 0 1 0 1 0 1 0 1 0 1 0 1 0 1 0 1 0 1 0 1 0 1 0 1 0 1 0 1 0 1 0 1 0 1 0 1 0 1 0 1 0 1 0 1 0 1 0 1 0 1 0 1 0 1 0 1 0 1 0 1 0 1 0 1 0 1 0 1 0 1 0 1 0 1 0 1 0 1 0 1 0 1 0 1 0 1 0 1 0 1 0 1 0 1 0 1 0 1 0 1 0 1 0 1 0 1 0 1 0 1 0 1 0 1 0 1 0 1 0 1 0 1 0 1 0 1 0 1 0 1 0 1 0 1 0 1 0 1 0 1 0 1 0 1 0 1 0 1 0 1 0 1 0 1 0 1</float_array>
          <technique_common>
            <accessor source="#LowPolyMario_001-mesh-map-0-array" count="132" stride="2">
              <param name="S" type="float"/>
              <param name="T" type="float"/>
            </accessor>
          </technique_common>
        </source>
        <vertices id="LowPolyMario_001-mesh-vertices">
          <input semantic="POSITION" source="#LowPolyMario_001-mesh-positions"/>
        </vertices>
        <triangles material="Eyes-material" count="15">
          <input semantic="VERTEX" source="#LowPolyMario_001-mesh-vertices" offset="0"/>
          <input semantic="NORMAL" source="#LowPolyMario_001-mesh-normals" offset="1"/>
          <input semantic="TEXCOORD" source="#LowPolyMario_001-mesh-map-0" offset="2" set="0"/>
          <p>22 0 0 0 1 1 8 2 2 4 3 3 0 1 4 15 4 5 4 3 6 8 2 7 0 1 8 2 6 27 6 9 28 4 3 29 2 6 30 5 10 31 6 9 32 8 2 33 7 11 34 2 6 35 7 11 36 5 10 37 2 6 38 6 9 39 5 10 40 7 11 41 4 3 42 6 9 43 8 2 44 6 9 45 7 11 46 8 2 47 22 0 48 3 8 49 12 12 50 3 8 51 1 7 52 12 12 53 12 12 54 1 7 55 9 13 56 9 13 57 1 7 58 10 5 59 9 13 60 10 5 61 15 4 62</p>
        </triangles>
        <triangles material="Mustache-material" count="6">
          <input semantic="VERTEX" source="#LowPolyMario_001-mesh-vertices" offset="0"/>
          <input semantic="NORMAL" source="#LowPolyMario_001-mesh-normals" offset="1"/>
          <input semantic="TEXCOORD" source="#LowPolyMario_001-mesh-map-0" offset="2" set="0"/>
          <p>10 5 9 2 6 10 4 3 11 10 5 12 1 7 13 2 6 14 4 3 15 15 4 16 10 5 17 8 2 18 2 6 19 3 8 20 2 6 21 1 7 22 3 8 23 3 8 24 22 0 25 8 2 26</p>
        </triangles>
        <triangles material="Hair-material" count="23">
          <input semantic="VERTEX" source="#LowPolyMario_001-mesh-vertices" offset="0"/>
          <input semantic="NORMAL" source="#LowPolyMario_001-mesh-normals" offset="1"/>
          <input semantic="TEXCOORD" source="#LowPolyMario_001-mesh-map-0" offset="2" set="0"/>
          <p>11 14 63 12 12 64 9 13 65 22 0 66 12 12 67 11 14 68 11 14 69 19 15 70 22 0 71 11 14 72 9 13 73 13 16 74 13 16 75 14 17 76 11 14 77 11 14 78 14 17 79 19 15 80 13 16 81 9 13 82 15 4 83 15 4 84 16 18 85 13 16 86 16 18 87 14 17 88 13 16 89 23 19 90 15 4 91 0 1 92 15 4 93 23 19 94 17 20 95 15 4 96 17 20 97 16 18 98 14 17 99 16 18 100 19 15 101 16 18 102 17 20 103 18 21 104 19 15 105 16 18 106 18 21 107 17 20 108 23 19 109 18 21 110 21 22 111 20 23 112 18 21 113 20 23 114 19 15 115 18 21 116 19 15 117 20 23 118 22 0 119 21 22 120 0 1 121 22 0 122 20 23 123 21 22 124 22 0 125 23 19 126 0 1 127 21 22 128 23 19 129 21 22 130 18 21 131</p>
        </triangles>
      </mesh>
    </geometry>
    <geometry id="LowPolyMario-mesh" name="LowPolyMario">
      <mesh>
        <source id="LowPolyMario-mesh-positions">
          <float_array id="LowPolyMario-mesh-positions-array" count="339">3.8147e-6 0.1738437 0.7122328 -0.385396 -0.3008561 1.370233 0.4324036 -0.2444562 0.8767327 -0.4135962 -0.1927561 1.074133 0.4512034 -0.2162563 1.116433 -0.07989597 -0.3354402 0.2634118 -0.06579589 0.3215062 0.2174271 0.4700031 0.3082565 0.2126044 -0.3947964 0.2866436 0.8768795 -0.4323959 -0.2444561 0.8767328 -0.3665962 0.2725434 0.5008795 0.3995037 0.4041436 0.8532328 0.4371033 -0.3519048 0.2674222 0.4606037 -0.4305261 -0.01127523 -0.4182959 0.3336438 1.102333 -0.3994961 0.4041437 0.8532329 -0.1127958 0.2678435 0.4961795 0.4183035 -0.1927562 1.074133 0.05640316 0.3170894 0.2158195 -0.3759966 0.2678434 0.5008796 0.4183035 0.3336436 1.102333 3.8147e-6 -0.4183562 1.074133 0.0799036 -0.3490957 0.2734465 0.4230042 -0.09405636 0.4773796 -0.0375967 0.3781904 -0.007021546 0.01880359 -0.1739562 0.8627796 -0.3759956 0.3336437 1.074133 0.02820396 0.3693572 -0.01023656 0.3807039 0.3336436 1.074133 3.8147e-6 -0.4512562 1.116433 -0.4605961 -0.2068561 1.111733 -0.03289604 -0.1739562 0.8298797 0.3901033 -0.3008562 1.370233 0.03760337 -0.1457566 0.1953797 -0.0422964 -0.4096449 -0.01367813 3.8147e-6 -0.2585563 0.7216327 0.3760033 0.2631435 0.5055794 -0.07049655 0.2772437 0.8674795 3.8147e-6 -0.4606562 1.205733 0.4935036 0.3665483 -0.0162608 0.06110382 -0.09875643 0.5149797 0.06580352 -0.09405648 0.4726797 -0.1080961 0.2584435 0.5008795 -0.3430958 0.3712437 1.389033 0.4230032 -0.09875631 0.5196796 0.4089041 0.2772437 0.9003793 -0.07989597 -0.08935642 0.4632797 0.3478041 0.3712436 1.389033 3.8147e-6 -0.4230563 1.389033 0.2820034 -0.1222562 1.553532 -1.024522 0.1879438 1.403206 0.4700041 -0.169256 0.8674796 -0.05639648 -0.1504565 0.2000797 -0.2772961 -0.1222562 1.553533 -0.0986967 0.2819433 0.1765795 -0.1973962 0.2114436 1.624033 3.8147e-6 -0.1974562 1.614633 0.1081037 0.2631434 0.5008795 0.08930397 0.2819432 0.1765795 0.07050418 0.2772437 0.8956794 0.103404 0.2584435 0.4961795 -0.8882227 -0.1175562 1.628806 -0.930522 0.1879438 1.445506 0.2021036 0.2114436 1.624032 0.9164305 0.2302436 1.633506 -0.8882227 -0.117556 1.323306 -1.344123 -0.3525561 1.318607 -0.6767225 0.1879436 1.417306 -0.9352226 -0.02825617 1.501906 -1.503922 -5.62668e-5 1.356207 -0.6814222 -0.05175626 1.487806 1.052731 -0.1128562 1.619406 0.3948031 0.2819435 0.1765794 0.3760033 0.2584436 0.4961794 1.53213 0.06574344 1.309206 -1.038623 0.2208437 1.628806 -0.6156225 0.1879436 1.426706 -0.3242226 0.1879436 1.384406 0.04230403 -0.4277171 -0.005251049 0.4465036 -0.1457564 0.2000796 0.9916306 -0.09405624 1.600606 0.9916306 0.1221436 1.544206 1.052731 -0.09875655 1.313906 0.7049303 -0.00475645 1.360906 0.6532307 -0.009456515 1.356206 0.3336306 -0.09405612 1.666406 -0.3289223 -0.08465623 1.478406 -0.4229956 -0.07995653 0.4679797 1.38173 0.2114437 1.675806 0.6532307 0.1409436 1.548906 -0.930522 0.1127437 1.671106 -1.358222 -0.1316562 1.675806 0.6532307 -0.09405612 1.619406 1.38643 0.4229435 1.360906 0.3336306 0.01404356 1.328006 -0.3242226 0.07984364 1.718106 -0.6767225 0.09864366 1.685206 0.34303 0.1785436 1.567706 -0.6156225 -0.04705631 1.497206 0.7049303 -0.09405612 1.628806 0.9916306 -0.01885652 1.375006 -0.6156225 0.1033437 1.689906 0.70963 0.1456437 1.558306 0.9305306 0.2067434 1.403206 -0.07049655 -0.09875643 0.5196797 -0.4558964 -0.4200856 -0.01247644 -0.4605961 -0.1363567 0.2094799 -0.4323959 -0.08465659 0.5243798 -0.4605961 -0.1598564 0.8345797 -0.3994961 0.2913432 0.1812795 -0.4746962 0.3110653 0.2186289 -0.4323959 -0.3458808 0.2646136 -0.5028963 0.3677497 -0.005819797</float_array>
          <technique_common>
            <accessor source="#LowPolyMario-mesh-positions-array" count="113" stride="3">
              <param name="X" type="float"/>
              <param name="Y" type="float"/>
              <param name="Z" type="float"/>
            </accessor>
          </technique_common>
        </source>
        <source id="LowPolyMario-mesh-normals">
          <float_array id="LowPolyMario-mesh-normals-array" count="516">0 0.1680152 -0.9857845 0.7215397 -0.4845425 -0.4945696 -2.82922e-7 -0.5003492 -0.8658238 0.5824588 0.6903659 -0.4291114 0.7120994 -0.3575065 0.604238 -0.5788027 0.6924691 -0.430667 -0.7127378 -0.4926896 -0.4992614 -0.7278981 -0.3439585 0.5931753 -0.5919012 0.513441 0.6213142 0.598715 0.5100983 0.6175275 -0.003983676 -0.8689568 0.4948722 -0.7280974 -0.2907381 -0.6207622 -0.002125263 -0.9944931 -0.1047812 -0.7558695 -0.577231 0.3089753 -0.001739859 -0.8799512 0.4750609 0.7275711 -0.2921917 -0.6206967 0.7547507 -0.5789609 0.3084733 0.5931335 0.5555374 -0.5827271 -0.5931295 0.5555661 -0.5827038 -0.6189212 0.7239184 0.3047602 -0.001799046 -0.6859813 -0.727617 0.6189136 0.7239238 0.3047626 -0.3584726 0.3694534 0.8573223 0.3584545 0.3691413 0.8574644 -0.5842997 -0.2477033 0.7728111 0.5825178 -0.2487337 0.7738248 -0.002377033 -0.454602 0.8906916 0.07815963 0.8100093 -0.5811852 0.6110674 0.7550511 0.2376856 0.5593962 0.6632546 -0.4971613 0.07065671 0.3158701 0.9461679 0.5737726 0.2207249 0.7887113 0.05444699 0.3382765 0.9394704 0.09163099 0.8193644 -0.5659026 -0.9991634 0.03895771 0.01244473 -0.02572548 -0.9506647 -0.3091519 -0.02126401 -0.9523626 -0.3042259 -0.02681261 -0.9502441 -0.3103503 -0.03200668 -0.9481976 -0.3160648 0.04781121 0.7801061 -0.6238179 0.591599 0.6193644 -0.516138 0.5624254 0.641874 -0.521225 0.03834873 0.274204 0.9609067 0.05367827 0.2520588 0.9662221 0.04399842 0.2660713 0.9629488 0.02925372 0.2872256 0.9574161 0.05599224 0.7870788 -0.6143062 -1 -5.33254e-7 0 1 0 0 -0.01235216 -0.9500778 -0.3117687 -0.01699846 -0.9518915 -0.3059637 -0.01378178 -0.9506417 -0.3099846 -0.00878328 -0.9486472 -0.3162145 -0.7921075 0.308832 -0.526487 -0.749265 0.3678388 0.5507238 0.3380361 0.8584992 -0.3856303 0.5273987 0.170694 0.8322946 -0.2937976 -0.7867599 0.5428555 0.8410946 -0.4129567 0.3493236 -0.1186847 0.1481543 -0.9818168 -0.3595834 -0.6493083 -0.6701481 -0.4777903 0.8333935 0.277798 -0.627783 -0.6118775 0.4811388 -0.56905 0.1616815 0.8062514 0.999792 -0.01940441 -0.006285846 -0.08138597 -0.8098588 0.5809518 -0.09640723 -0.8197901 0.5644909 -0.07463389 -0.2991403 -0.9512859 -0.06877392 -0.306984 -0.9492266 -0.05547761 -0.3246337 -0.9442115 -0.0892288 -0.2794304 -0.956011 0.02521443 0.9498956 0.3115488 0.02196907 0.9510994 0.3081029 -0.04583287 -0.7755255 0.6296503 -0.05064004 -0.7793867 0.6244934 -0.06015509 -0.7868883 0.6141566 -0.6050706 -0.2007181 -0.7704556 -0.04137194 -0.2731332 -0.9610862 -0.03097438 -0.2872096 -0.9573669 -0.563986 -0.1969435 -0.8019558 -0.0357148 -0.767243 0.6403614 0.01375365 0.9505707 0.3102039 0.01887655 0.9485142 0.3161718 0.01488953 0.9501202 0.3115288 0.01014935 0.9519796 0.3059934 -0.9996852 0.02380508 0.007935106 -0.5093843 -0.2344551 0.8279846 0.7548881 -0.3173474 0.5739639 0.242835 0.8119739 0.530782 -0.8460751 0.3352387 -0.4144539 -0.2839985 -0.8836821 0.3720898 0.7309761 -0.2119703 -0.6486468 -0.007438123 0.1589258 -0.9872625 0.340929 0.7697009 -0.5397482 0.6521046 0.7537649 -0.08122789 0.9861764 0.1393432 -0.08966404 0.5158753 0.6264972 -0.5842722 -0.6552795 0.7501019 -0.08919674 -0.5088021 0.6213144 -0.5958935 -0.987836 0.1222441 -0.0961067 -0.5778168 -0.4579496 -0.6755812 0.590075 -0.4571457 -0.6654542 -0.009607732 -0.07478863 0.9971532 -0.01174455 -0.07295066 0.9972664 -0.01136171 -0.07327997 0.9972467 -0.01385217 -0.07113707 0.9973704 0.007748603 -0.9807336 -0.195196 0.01221138 -0.9815744 -0.1906898 0.5234639 0.6074389 0.5974978 0.9898563 0.1289291 0.05968272 0.6453926 0.7580817 0.0937047 -0.6455776 0.7590287 0.08429193 -0.530492 0.6028391 0.5959559 -0.9911636 0.1211385 0.05403929 -0.599185 -0.4849954 0.6369904 0.5960551 -0.4782369 0.6449867 0.01148146 -0.04529649 -0.9989076 -2.27744e-7 -0.05486279 -0.998494 -0.0016734 -0.98934 0.1456148 -0.001787841 -0.9893599 0.1454776 -0.01395416 -0.006244957 -0.9998832 -0.01444357 -0.006509482 -0.9998745 -0.01343226 -0.005962789 -0.9998921 -0.01298022 -0.00571841 -0.9998995 0.5469139 -0.4775037 0.6876594 0.6382851 -0.7250831 0.2585475 0.9948411 -0.04155606 0.09254419 -0.529207 -0.4668252 0.7085296 -0.5550543 0.5277771 0.6429356 -0.6600894 0.7064324 0.2554122 0.5835239 0.5043914 0.6364662 -0.6452116 -0.7081254 0.2868108 0.009055197 0.9687991 0.2476821 -0.6109397 -0.4267096 -0.6668371 0.5614041 -0.4615153 -0.6868983 -0.03227931 -0.9752966 -0.2185285 -0.03454256 -0.9757372 -0.2162032 -0.5079926 0.6400557 -0.5764306 0.5189374 0.6148306 -0.5938749 0.01527988 -0.08961224 0.9958595 0.02653801 -0.08081924 0.9963755 0.01753705 -0.08785098 0.9959793 0.007791638 -0.09544926 0.9954039 -0.9847631 0.1579799 -0.07269132 -0.6354829 0.7685935 -0.07365947 0.9893208 0.09623652 -0.1094672 0.6756387 0.7310243 -0.09547764 0.5974928 -0.4938666 0.6317421 -0.6087003 -0.4509811 0.6527634 -0.03369247 -0.9862294 0.1619148 -0.03074556 -0.9869136 0.1582918 -0.01756882 -0.06328266 -0.997841 -0.02518945 -0.05670773 -0.9980731 0.5518776 0.5878123 0.5915301 -0.5002312 0.6240302 0.6002959 -0.9853808 0.1545307 0.07172757 0.6647456 0.7435634 0.07229685 0.9942117 0.1028503 0.03106683 -0.6214818 0.7766544 0.1028028 -0.5782566 0.4929904 0.6500614 0.5523394 0.5213838 0.6504461 0.6575434 0.7053972 0.2646723 -0.5283917 -0.4971843 0.6881933 0.5437734 -0.4675019 0.6969595 -0.6182605 -0.7439883 0.2534473 0.6606825 -0.697871 0.2765406 -0.02109783 0.9687098 0.2472978 -0.9925387 -0.05726021 0.1076484 -0.002876818 0.008340537 -0.9999611 -0.003000617 0.008405387 -0.9999602 -0.002768516 0.008283793 -0.9999619 -0.003119051 0.008467435 -0.9999593</float_array>
          <technique_common>
            <accessor source="#LowPolyMario-mesh-normals-array" count="172" stride="3">
              <param name="X" type="float"/>
              <param name="Y" type="float"/>
              <param name="Z" type="float"/>
            </accessor>
          </technique_common>
        </source>
        <source id="LowPolyMario-mesh-map-0">
          <float_array id="LowPolyMario-mesh-map-0-array" count="1020">0 1 0 1 0 1 0 1 0 1 0 1 0 1 0 1 0 1 0 1 0 1 0 1 0 1 0 1 0 1 0 1 0 1 0 1 0 1 0 1 0 1 0 1 0 1 0 1 0 1 0 1 0 1 0 1 0 1 0 1 0 1 0 1 0 1 0 1 0 1 0 1 0 1 0 1 0 1 0 1 0 1 0 1 0 1 0 1 0 1 0 1 0 1 0 1 0 1 0 1 0 1 0 1 0 1 0 1 -0.3867188 -0.6074219 1.921875 0.2949219 -0.3808594 0.8710938 1.658203 1.273437 -0.3808594 0.8710938 1.921875 0.2949219 1.572266 -0.4765625 1.044922 1.066406 -1.039062 0.0546875 -1.039062 0.0546875 1.044922 1.066406 -1.119141 1.121094 0 1 0 1 0 1 0 1 0 1 0 1 0 1 0 1 0 1 0 1 0 1 0 1 0 1 0 1 0 1 0 1 0 1 0 1 0 1 0 1 0 1 0 1 0 1 0 1 0 1 0 1 0 1 0 1 0 1 0 1 0 1 0 1 0 1 0 1 0 1 0 1 0 1 0 1 0 1 0 1 0 1 0 1 0 1 0 1 0 1 0 1 0 1 0 1 0 1 0 1 0 1 0 1 0 1 0 1 0 1 0 1 0 1 0 1 0 1 0 1 0 1 0 1 0 1 0 1 0 1 0 1 0 1 0 1 0 1 0 1 0 1 0 1 0 1 0 1 0 1 0 1 0 1 0 1 0 1 0 1 0 1 0 1 0 1 0 1 0 1 0 1 0 1 0 1 0 1 0 1 0 1 0 1 0 1 0 1 0 1 0 1 0 1 0 1 0 1 0 1 0 1 0 1 0 1 0 1 0 1 0 1 0 1 0 1 0 1 0 1 0 1 0 1 0 1 0 1 0 1 0 1 0 1 0 1 0 1 0 1 0 1 0 1 0 1 0 1 0 1 0 1 0 1 0 1 0 1 0 1 0 1 0 1 0 1 0 1 0 1 0 1 0 1 0 1 0 1 0 1 0 1 0 1 0 1 0 1 0 1 0 1 0 1 0 1 0 1 0 1 0 1 0 1 0 1 0 1 0 1 0 1 0 1 0 1 0 1 0 1 0 1 0 1 0 1 0 1 0 1 0 1 0 1 0 1 0 1 0 1 0 1 0 1 0 1 0 1 0 1 0 1 0 1 0 1 0 1 0 1 0 1 0 1 0 1 0 1 0 1 0 1 0 1 0 1 0 1 0 1 0 1 0 1 0 1 0 1 0 1 0 1 0 1 0 1 0 1 0 1 0 1 0 1 0 1 0 1 0 1 0 1 0 1 0 1 0 1 0 1 0 1 0 1 0 1 0 1 0 1 0 1 0 1 0 1 0 1 0 1 0 1 0 1 0 1 0 1 0 1 0 1 0 1 0 1 0 1 0 1 0 1 0 1 0 1 0 1 0 1 0 1 0 1 0 1 0 1 0 1 0 1 0 1 0 1 0 1 0 1 0 1 0 1 0 1 0 1 0 1 0 1 0 1 0 1 0 1 0 1 0 1 0 1 0 1 0 1 0 1 0 1 0 1 0 1 0 1 0 1 0 1 0 1 0 1 0 1 0 1 0 1 0 1 0 1 0 1 0 1 0 1 0 1 0 1 0 1 0 1 0 1 0 1 0 1 0 1 0 1 0 1 0 1 0 1 0 1 0 1 0 1 0 1 0 1 0 1 0 1 0 1 0 1 0 1 0 1 0 1 0 1 0 1 0 1 0 1 0 1 0 1 0 1 0 1 0 1 0 1 0 1 0 1 0 1 0 1 0 1 0 1 0 1 0 1 0 1 0 1 0 1 0 1 0 1 0 1 0 1 0 1 0 1 0 1 0 1 0 1 0 1 0 1 0 1 0 1 0 1 0 1 0 1 0 1 0 1 0 1 0 1 0 1 0 1 0 1 0 1 0 1 0 1 0 1 0 1 0 1 0 1 0 1 0 1 0 1 0 1 0 1 0 1 0 1 0 1 0 1 0 1 0 1 0 1 0 1 0 1 0 1 0 1 0 1 0 1 0 1 0 1 0 1 0 1 0 1 0 1 0 1 0 1 0 1 0 1 0 1 0 1 0 1 0 1 0 1 0 1 0 1 0 1 0 1 0 1 0 1 0 1 0 1 0 1 0 1 0 1 0 1 0 1 0 1 0 1 0 1 0 1 0 1 0 1 0 1 0 1 0 1 0 1 0 1 0 1 0 1 0 1 0 1 0 1 0 1 0 1 0 1 0 1 0 1 0 1 0 1 0 1 0 1 0 1 0 1 0 1 0 1 0 1 0 1 0 1 0 1 0 1 0 1 0 1 0 1 0 1 0 1 0 1 0 1 0 1 0 1 0 1 0 1 0 1 0 1</float_array>
          <technique_common>
            <accessor source="#LowPolyMario-mesh-map-0-array" count="510" stride="2">
              <param name="S" type="float"/>
              <param name="T" type="float"/>
            </accessor>
          </technique_common>
        </source>
        <vertices id="LowPolyMario-mesh-vertices">
          <input semantic="POSITION" source="#LowPolyMario-mesh-positions"/>
        </vertices>
        <triangles material="Overalls-material" count="84">
          <input semantic="VERTEX" source="#LowPolyMario-mesh-vertices" offset="0"/>
          <input semantic="NORMAL" source="#LowPolyMario-mesh-normals" offset="1"/>
          <input semantic="TEXCOORD" source="#LowPolyMario-mesh-map-0" offset="2" set="0"/>
          <p>0 0 0 2 1 1 35 2 2 2 1 3 11 3 4 4 4 5 15 5 6 9 6 7 30 7 8 0 0 9 35 2 10 9 6 11 9 6 12 15 5 13 0 0 14 0 0 15 11 3 16 2 1 17 30 7 18 14 8 19 15 5 20 11 3 21 20 9 22 4 4 23 14 8 24 30 7 25 29 10 26 4 4 27 20 9 28 14 8 29 15 5 30 20 9 31 11 3 32 11 3 33 0 0 34 15 5 35 15 5 36 14 8 37 20 9 38 29 10 39 30 7 40 9 6 41 29 10 42 4 4 43 14 8 44 35 2 45 2 1 46 29 10 47 9 6 48 35 2 49 29 10 50 2 1 51 4 4 52 29 10 53 3 11 54 38 12 55 1 13 56 48 14 57 1 13 58 38 12 59 17 15 60 32 16 61 38 12 62 38 12 63 32 16 64 48 14 65 28 17 66 3 11 67 26 18 68 26 18 69 43 19 70 28 17 71 28 17 72 17 15 73 21 20 74 43 19 75 47 21 76 28 17 77 17 15 78 28 17 79 47 21 80 28 17 81 21 20 82 3 11 83 32 16 84 17 15 85 47 21 86 21 20 87 17 15 88 38 12 89 38 12 90 3 11 91 21 20 92 43 19 93 3 11 94 1 13 95 43 19 96 26 18 97 3 11 98 47 21 99 43 19 100 55 22 101 53 24 105 1 13 106 48 14 107 48 14 108 32 16 109 49 25 110 45 94 294 51 95 295 36 96 296 59 97 297 45 94 298 57 98 299 25 99 300 59 97 301 57 98 302 57 98 303 41 100 304 25 99 305 45 94 306 36 96 307 57 98 308 51 95 309 23 101 310 36 96 311 51 102 312 45 103 313 25 104 314 45 103 315 59 105 316 25 104 317 41 100 318 57 98 319 23 101 320 57 98 321 36 96 322 23 101 323 25 106 324 23 101 325 51 107 326 25 106 327 41 100 328 23 101 329 73 108 330 79 109 331 72 110 332 73 108 333 72 110 334 58 111 335 60 112 336 58 111 337 33 113 338 33 113 339 40 114 340 60 112 341 58 111 342 60 112 343 73 108 344 73 108 345 44 115 346 79 109 347 44 115 348 60 112 349 40 114 350 44 115 351 73 108 352 60 112 353 33 116 354 58 116 355 79 116 356 58 117 357 72 117 358 79 117 359 40 114 360 33 118 361 79 119 362 79 119 363 44 115 364 40 114 365 87 133 402 46 134 403 31 135 404 108 136 405 87 133 406 31 135 407 87 133 408 10 137 409 16 138 410 87 133 411 16 138 412 46 134 413 31 139 414 37 140 415 8 141 416 31 139 417 8 141 418 108 142 419 10 137 420 87 133 421 108 143 422 16 138 423 10 137 424 8 144 425 31 145 426 46 134 427 16 138 428 16 138 429 37 146 430 31 145 431 16 138 432 8 144 433 37 146 434 10 137 435 108 143 436 8 144 437 104 147 438 107 148 439 106 149 440 106 149 441 52 150 442 104 147 443 106 151 444 109 151 445 54 151 446 106 152 447 54 152 448 52 152 449 42 153 450 19 154 451 107 148 452 104 147 453 42 153 454 107 148 455 106 155 456 107 148 457 19 154 458 19 154 459 42 153 460 54 156 461 42 153 462 104 147 463 52 157 464 52 157 465 54 156 466 42 153 467 54 156 468 109 158 469 19 154 470 109 158 471 106 155 472 19 154 473</p>
        </triangles>
        <triangles material="Logo-material" count="42">
          <input semantic="VERTEX" source="#LowPolyMario-mesh-vertices" offset="0"/>
          <input semantic="NORMAL" source="#LowPolyMario-mesh-normals" offset="1"/>
          <input semantic="TEXCOORD" source="#LowPolyMario-mesh-map-0" offset="2" set="0"/>
          <p>55 22 102 63 23 103 47 21 104 49 25 111 56 26 112 48 14 113 43 19 114 1 13 115 53 24 116 53 24 117 55 22 118 43 19 119 48 14 120 56 26 121 53 24 122 55 22 123 53 24 124 56 26 125 47 21 126 63 23 127 49 25 128 47 21 129 49 25 130 32 16 131 63 23 132 55 22 133 56 26 134 56 26 135 49 25 136 63 23 137 97 27 138 102 28 139 83 29 140 85 30 141 99 31 142 102 28 143 97 32 144 85 30 145 102 28 146 94 33 147 97 27 148 83 29 149 85 34 150 97 34 151 94 34 152 83 29 153 102 28 154 99 31 155 85 35 156 94 36 157 83 37 158 85 35 159 83 37 160 99 38 161 89 39 162 81 40 163 100 41 164 92 42 165 80 43 166 81 44 167 89 45 168 92 42 169 81 44 170 84 46 171 89 39 172 100 41 173 92 47 174 89 47 175 84 47 176 100 41 177 81 40 178 80 48 179 80 49 180 92 50 181 84 51 182 80 49 183 84 51 184 100 52 185 67 61 216 70 62 217 96 63 218 95 64 219 86 64 220 77 64 221 96 63 222 86 65 223 95 66 224 70 67 225 77 68 226 86 69 227 70 67 228 67 70 229 77 68 230 96 63 231 70 62 232 86 65 233 77 71 234 67 61 235 96 63 236 77 71 237 96 63 238 95 72 239 101 48 240 98 48 241 76 48 242 90 73 243 98 74 244 101 75 245 68 76 246 76 77 247 98 78 248 68 76 249 62 79 250 76 77 251 90 73 252 68 80 253 98 74 254 76 81 255 62 82 256 90 83 257 76 81 258 90 83 259 101 84 260 62 79 261 68 76 262 90 85 263</p>
        </triangles>
        <triangles material="Gloves-material" count="20">
          <input semantic="VERTEX" source="#LowPolyMario-mesh-vertices" offset="0"/>
          <input semantic="NORMAL" source="#LowPolyMario-mesh-normals" offset="1"/>
          <input semantic="TEXCOORD" source="#LowPolyMario-mesh-map-0" offset="2" set="0"/>
          <p>103 53 186 64 54 187 93 55 188 64 54 189 88 56 190 93 55 191 71 57 192 74 58 193 88 56 194 103 53 195 74 59 196 82 60 197 103 53 198 93 55 199 74 59 200 71 57 201 82 60 202 74 58 203 88 56 204 64 54 205 71 57 206 93 55 207 88 56 208 74 58 209 103 53 210 82 60 211 71 57 212 71 57 213 64 54 214 103 53 215 91 86 264 61 87 265 75 88 266 91 86 267 75 88 268 69 89 269 66 90 270 91 86 271 69 89 272 66 90 273 65 91 274 61 87 275 66 92 276 69 89 277 50 93 278 65 91 279 66 92 280 50 93 281 91 86 282 66 90 283 61 87 284 69 89 285 75 88 286 50 93 287 61 87 288 65 91 289 50 93 290 50 93 291 75 88 292 61 87 293</p>
        </triangles>
        <triangles material="Shoes-material" count="24">
          <input semantic="VERTEX" source="#LowPolyMario-mesh-vertices" offset="0"/>
          <input semantic="NORMAL" source="#LowPolyMario-mesh-normals" offset="1"/>
          <input semantic="TEXCOORD" source="#LowPolyMario-mesh-map-0" offset="2" set="0"/>
          <p>13 120 366 78 121 367 27 122 368 39 123 369 13 120 370 27 122 371 12 124 372 13 125 373 39 126 374 22 127 375 18 128 376 27 129 377 7 130 378 12 124 379 39 126 380 22 127 381 27 129 382 78 131 383 27 129 384 7 130 385 39 132 386 22 127 387 7 130 388 18 128 389 22 127 390 78 131 391 13 125 392 13 125 393 12 124 394 22 127 395 22 127 396 12 124 397 7 130 398 27 129 399 18 128 400 7 130 401 110 159 474 6 160 475 24 161 476 110 159 477 111 162 478 5 163 479 5 163 480 111 162 481 105 164 482 105 164 483 34 165 484 5 163 485 6 160 486 110 159 487 5 163 488 112 166 489 110 159 490 24 161 491 34 165 492 24 161 493 5 163 494 112 167 495 111 162 496 110 159 497 24 161 498 6 160 499 5 163 500 112 167 501 105 164 502 111 162 503 24 168 504 105 169 505 112 170 506 24 168 507 34 171 508 105 169 509</p>
        </triangles>
      </mesh>
    </geometry>
  </library_geometries>
  <library_controllers>
    <controller id="Mario_Rig_MarioWings-skin" name="Mario_Rig">
      <skin source="#LowPolyMario_003-mesh">
        <bind_shape_matrix>1 0 0 0 0 1 0 0 0 0 1 0 0 0 0 1</bind_shape_matrix>
        <source id="Mario_Rig_MarioWings-skin-joints">
          <Name_array id="Mario_Rig_MarioWings-skin-joints-array" count="19">Hips Chest Head wing_R wing_L shoulder_L upper_arm_L forearm_L hand_L shoulder_R upper_arm_R forearm_R hand_R thigh_L shin_L foot_L thigh_R shin_R foot_R</Name_array>
          <technique_common>
            <accessor source="#Mario_Rig_MarioWings-skin-joints-array" count="19" stride="1">
              <param name="JOINT" type="name"/>
            </accessor>
          </technique_common>
        </source>
        <source id="Mario_Rig_MarioWings-skin-bind_poses">
          <float_array id="Mario_Rig_MarioWings-skin-bind_poses-array" count="304">1 2.38419e-7 0 0 0 1.04904e-5 1 -0.8863624 2.38419e-7 -1 1.04652e-5 5.91697e-5 0 0 0 1 1 2.38419e-7 0 0 0 9.87177e-4 0.9999994 -1.205942 2.38419e-7 -0.9999995 9.87152e-4 -0.0011186 0 0 0 1 1 -4.81386e-6 8.44159e-5 -2.20021e-4 -8.43552e-5 0.0114662 0.9999343 -1.614466 -5.78148e-6 -0.9999343 0.0114662 -0.01807475 0 0 0 1 0.3444519 -0.6284778 0.6974014 -1.644837 -0.2507232 0.6542962 0.7134666 -1.636436 -0.9047049 -0.4206097 0.0677995 0.4819044 0 0 0 1 0.3444519 0.6284778 -0.6974012 1.644836 0.2507227 0.6542962 0.7134665 -1.636436 0.9047049 -0.4206092 0.06779992 0.4819033 0 0 0 1 0.3208453 -0.9375655 0.1342741 -0.3033897 0.945485 0.3254082 0.0129373 -0.342907 -0.0558235 0.1228033 0.9908598 -1.493022 0 0 0 1 -0.002152562 0.2038779 -0.9789938 1.480285 0.9999973 -2.52185e-5 -0.002204 -0.3680452 -4.73886e-4 -0.9789963 -0.2038773 0.3562133 0 0 0 1 0.002524495 -0.145688 -0.9893273 1.50923 0.9999964 -2.55817e-4 0.002589285 -0.6807603 -6.30181e-4 -0.9893305 0.1456869 -0.1746487 0 0 0 1 -0.01948606 0.02476799 -0.9995032 1.53783 0.9997094 -0.01370269 -0.01982969 -0.9278743 -0.01418691 -0.9995992 -0.02449369 0.09768748 0 0 0 1 0.3208452 0.9375654 -0.1342741 0.3033895 -0.9454851 0.3254082 0.0129373 -0.342907 0.05582344 0.1228032 0.9908598 -1.493022 0 0 0 1 -0.002152502 -0.2038787 0.9789937 -1.485468 -0.9999974 -2.52403e-5 -0.002203881 -0.3680337 4.74006e-4 -0.978996 -0.2038781 0.3572943 0 0 0 1 0.002524495 0.1456879 0.9893274 -1.514469 -0.9999964 -2.55709e-4 0.002589344 -0.6807742 6.3018e-4 -0.9893304 0.1456868 -0.1754201 0 0 0 1 -0.01948601 -0.02476876 0.9995032 -1.543123 -0.9997094 -0.01370257 -0.01982963 -0.9277694 0.01418691 -0.999599 -0.02449458 0.09781855 0 0 0 1 0.9999889 -0.003445506 -0.003272056 -0.1956875 -0.003272473 -1.17518e-4 -0.9999946 0.9478928 0.003445088 0.999994 -1.28767e-4 -0.03820073 0 0 0 1 1 -2.65326e-7 -3.55688e-4 -0.197362 -3.55687e-4 -5.99376e-5 -1 0.5290749 2.32475e-7 1 -5.99124e-5 -0.03755688 0 0 0 1 1 -3.44491e-5 -1.3582e-4 -0.1974078 -1.15945e-4 0.3408783 -0.9401078 0.1885194 7.86726e-5 0.9401076 0.3408783 -0.1083266 0 0 0 1 0.9999889 0.003445506 0.003272056 0.1956875 0.003272473 -1.17516e-4 -0.9999947 0.9478929 -0.003445088 0.999994 -1.28765e-4 -0.03820073 0 0 0 1 1 2.61833e-7 3.55688e-4 0.197362 3.55686e-4 -5.99376e-5 -1 0.5290749 -2.213e-7 0.9999999 -5.99124e-5 -0.03755688 0 0 0 1 1 3.44457e-5 1.35819e-4 0.1974078 1.15947e-4 0.3408781 -0.9401077 0.1885194 -7.86617e-5 0.9401074 0.3408782 -0.1083266 0 0 0 1</float_array>
          <technique_common>
            <accessor source="#Mario_Rig_MarioWings-skin-bind_poses-array" count="19" stride="16">
              <param name="TRANSFORM" type="float4x4"/>
            </accessor>
          </technique_common>
        </source>
        <source id="Mario_Rig_MarioWings-skin-weights">
          <float_array id="Mario_Rig_MarioWings-skin-weights-array" count="12">1 1 1 1 1 1 1 1 1 1 1 1</float_array>
          <technique_common>
            <accessor source="#Mario_Rig_MarioWings-skin-weights-array" count="12" stride="1">
              <param name="WEIGHT" type="float"/>
            </accessor>
          </technique_common>
        </source>
        <joints>
          <input semantic="JOINT" source="#Mario_Rig_MarioWings-skin-joints"/>
          <input semantic="INV_BIND_MATRIX" source="#Mario_Rig_MarioWings-skin-bind_poses"/>
        </joints>
        <vertex_weights count="12">
          <input semantic="JOINT" source="#Mario_Rig_MarioWings-skin-joints" offset="0"/>
          <input semantic="WEIGHT" source="#Mario_Rig_MarioWings-skin-weights" offset="1"/>
          <vcount>1 1 1 1 1 1 1 1 1 1 1 1 </vcount>
          <v>3 0 3 1 3 2 3 3 4 4 3 5 4 6 4 7 3 8 4 9 4 10 4 11</v>
        </vertex_weights>
      </skin>
    </controller>
    <controller id="Mario_Rig_MarioHead-skin" name="Mario_Rig">
      <skin source="#LowPolyMario_002-mesh">
        <bind_shape_matrix>1 0 0 0 0 1 0 0 0 0 1 0 0 0 0 1</bind_shape_matrix>
        <source id="Mario_Rig_MarioHead-skin-joints">
          <Name_array id="Mario_Rig_MarioHead-skin-joints-array" count="19">Hips Chest Head wing_R wing_L shoulder_L upper_arm_L forearm_L hand_L shoulder_R upper_arm_R forearm_R hand_R thigh_L shin_L foot_L thigh_R shin_R foot_R</Name_array>
          <technique_common>
            <accessor source="#Mario_Rig_MarioHead-skin-joints-array" count="19" stride="1">
              <param name="JOINT" type="name"/>
            </accessor>
          </technique_common>
        </source>
        <source id="Mario_Rig_MarioHead-skin-bind_poses">
          <float_array id="Mario_Rig_MarioHead-skin-bind_poses-array" count="304">1 2.38419e-7 0 0 0 1.04904e-5 1 -0.8863624 2.38419e-7 -1 1.04652e-5 5.91697e-5 0 0 0 1 1 2.38419e-7 0 0 0 9.87177e-4 0.9999994 -1.205942 2.38419e-7 -0.9999995 9.87152e-4 -0.0011186 0 0 0 1 1 -4.81386e-6 8.44159e-5 -2.20021e-4 -8.43552e-5 0.0114662 0.9999343 -1.614466 -5.78148e-6 -0.9999343 0.0114662 -0.01807475 0 0 0 1 0.3444519 -0.6284778 0.6974014 -1.644837 -0.2507232 0.6542962 0.7134666 -1.636436 -0.9047049 -0.4206097 0.0677995 0.4819044 0 0 0 1 0.3444519 0.6284778 -0.6974012 1.644836 0.2507227 0.6542962 0.7134665 -1.636436 0.9047049 -0.4206092 0.06779992 0.4819033 0 0 0 1 0.3208453 -0.9375655 0.1342741 -0.3033897 0.945485 0.3254082 0.0129373 -0.342907 -0.0558235 0.1228033 0.9908598 -1.493022 0 0 0 1 -0.002152562 0.2038779 -0.9789938 1.480285 0.9999973 -2.52185e-5 -0.002204 -0.3680452 -4.73886e-4 -0.9789963 -0.2038773 0.3562133 0 0 0 1 0.002524495 -0.145688 -0.9893273 1.50923 0.9999964 -2.55817e-4 0.002589285 -0.6807603 -6.30181e-4 -0.9893305 0.1456869 -0.1746487 0 0 0 1 -0.01948606 0.02476799 -0.9995032 1.53783 0.9997094 -0.01370269 -0.01982969 -0.9278743 -0.01418691 -0.9995992 -0.02449369 0.09768748 0 0 0 1 0.3208452 0.9375654 -0.1342741 0.3033895 -0.9454851 0.3254082 0.0129373 -0.342907 0.05582344 0.1228032 0.9908598 -1.493022 0 0 0 1 -0.002152502 -0.2038787 0.9789937 -1.485468 -0.9999974 -2.52403e-5 -0.002203881 -0.3680337 4.74006e-4 -0.978996 -0.2038781 0.3572943 0 0 0 1 0.002524495 0.1456879 0.9893274 -1.514469 -0.9999964 -2.55709e-4 0.002589344 -0.6807742 6.3018e-4 -0.9893304 0.1456868 -0.1754201 0 0 0 1 -0.01948601 -0.02476876 0.9995032 -1.543123 -0.9997094 -0.01370257 -0.01982963 -0.9277694 0.01418691 -0.999599 -0.02449458 0.09781855 0 0 0 1 0.9999889 -0.003445506 -0.003272056 -0.1956875 -0.003272473 -1.17518e-4 -0.9999946 0.9478928 0.003445088 0.999994 -1.28767e-4 -0.03820073 0 0 0 1 1 -2.65326e-7 -3.55688e-4 -0.197362 -3.55687e-4 -5.99376e-5 -1 0.5290749 2.32475e-7 1 -5.99124e-5 -0.03755688 0 0 0 1 1 -3.44491e-5 -1.3582e-4 -0.1974078 -1.15945e-4 0.3408783 -0.9401078 0.1885194 7.86726e-5 0.9401076 0.3408783 -0.1083266 0 0 0 1 0.9999889 0.003445506 0.003272056 0.1956875 0.003272473 -1.17516e-4 -0.9999947 0.9478929 -0.003445088 0.999994 -1.28765e-4 -0.03820073 0 0 0 1 1 2.61833e-7 3.55688e-4 0.197362 3.55686e-4 -5.99376e-5 -1 0.5290749 -2.213e-7 0.9999999 -5.99124e-5 -0.03755688 0 0 0 1 1 3.44457e-5 1.35819e-4 0.1974078 1.15947e-4 0.3408781 -0.9401077 0.1885194 -7.86617e-5 0.9401074 0.3408782 -0.1083266 0 0 0 1</float_array>
          <technique_common>
            <accessor source="#Mario_Rig_MarioHead-skin-bind_poses-array" count="19" stride="16">
              <param name="TRANSFORM" type="float4x4"/>
            </accessor>
          </technique_common>
        </source>
        <source id="Mario_Rig_MarioHead-skin-weights">
          <float_array id="Mario_Rig_MarioHead-skin-weights-array" count="23">1 1 1 1 1 1 1 1 1 1 1 1 1 1 1 1 1 1 1 1 1 1 1</float_array>
          <technique_common>
            <accessor source="#Mario_Rig_MarioHead-skin-weights-array" count="23" stride="1">
              <param name="WEIGHT" type="float"/>
            </accessor>
          </technique_common>
        </source>
        <joints>
          <input semantic="JOINT" source="#Mario_Rig_MarioHead-skin-joints"/>
          <input semantic="INV_BIND_MATRIX" source="#Mario_Rig_MarioHead-skin-bind_poses"/>
        </joints>
        <vertex_weights count="23">
          <input semantic="JOINT" source="#Mario_Rig_MarioHead-skin-joints" offset="0"/>
          <input semantic="WEIGHT" source="#Mario_Rig_MarioHead-skin-weights" offset="1"/>
          <vcount>1 1 1 1 1 1 1 1 1 1 1 1 1 1 1 1 1 1 1 1 1 1 1 </vcount>
          <v>2 0 2 1 2 2 2 3 2 4 2 5 2 6 2 7 2 8 2 9 2 10 2 11 2 12 2 13 2 14 2 15 2 16 2 17 2 18 2 19 2 20 2 21 2 22</v>
        </vertex_weights>
      </skin>
    </controller>
    <controller id="Mario_Rig_MarioNOHat-skin" name="Mario_Rig">
      <skin source="#LowPolyMario_001-mesh">
        <bind_shape_matrix>1 0 0 0 0 1 0 0 0 0 1 0 0 0 0 1</bind_shape_matrix>
        <source id="Mario_Rig_MarioNOHat-skin-joints">
          <Name_array id="Mario_Rig_MarioNOHat-skin-joints-array" count="19">Hips Chest Head wing_R wing_L shoulder_L upper_arm_L forearm_L hand_L shoulder_R upper_arm_R forearm_R hand_R thigh_L shin_L foot_L thigh_R shin_R foot_R</Name_array>
          <technique_common>
            <accessor source="#Mario_Rig_MarioNOHat-skin-joints-array" count="19" stride="1">
              <param name="JOINT" type="name"/>
            </accessor>
          </technique_common>
        </source>
        <source id="Mario_Rig_MarioNOHat-skin-bind_poses">
          <float_array id="Mario_Rig_MarioNOHat-skin-bind_poses-array" count="304">1 2.38419e-7 0 0 0 1.04904e-5 1 -0.8863624 2.38419e-7 -1 1.04652e-5 5.91697e-5 0 0 0 1 1 2.38419e-7 0 0 0 9.87177e-4 0.9999994 -1.205942 2.38419e-7 -0.9999995 9.87152e-4 -0.0011186 0 0 0 1 1 -4.81386e-6 8.44159e-5 -2.20021e-4 -8.43552e-5 0.0114662 0.9999343 -1.614466 -5.78148e-6 -0.9999343 0.0114662 -0.01807475 0 0 0 1 0.3444519 -0.6284778 0.6974014 -1.644837 -0.2507232 0.6542962 0.7134666 -1.636436 -0.9047049 -0.4206097 0.0677995 0.4819044 0 0 0 1 0.3444519 0.6284778 -0.6974012 1.644836 0.2507227 0.6542962 0.7134665 -1.636436 0.9047049 -0.4206092 0.06779992 0.4819033 0 0 0 1 0.3208453 -0.9375655 0.1342741 -0.3033897 0.945485 0.3254082 0.0129373 -0.342907 -0.0558235 0.1228033 0.9908598 -1.493022 0 0 0 1 -0.002152562 0.2038779 -0.9789938 1.480285 0.9999973 -2.52185e-5 -0.002204 -0.3680452 -4.73886e-4 -0.9789963 -0.2038773 0.3562133 0 0 0 1 0.002524495 -0.145688 -0.9893273 1.50923 0.9999964 -2.55817e-4 0.002589285 -0.6807603 -6.30181e-4 -0.9893305 0.1456869 -0.1746487 0 0 0 1 -0.01948606 0.02476799 -0.9995032 1.53783 0.9997094 -0.01370269 -0.01982969 -0.9278743 -0.01418691 -0.9995992 -0.02449369 0.09768748 0 0 0 1 0.3208452 0.9375654 -0.1342741 0.3033895 -0.9454851 0.3254082 0.0129373 -0.342907 0.05582344 0.1228032 0.9908598 -1.493022 0 0 0 1 -0.002152502 -0.2038787 0.9789937 -1.485468 -0.9999974 -2.52403e-5 -0.002203881 -0.3680337 4.74006e-4 -0.978996 -0.2038781 0.3572943 0 0 0 1 0.002524495 0.1456879 0.9893274 -1.514469 -0.9999964 -2.55709e-4 0.002589344 -0.6807742 6.3018e-4 -0.9893304 0.1456868 -0.1754201 0 0 0 1 -0.01948601 -0.02476876 0.9995032 -1.543123 -0.9997094 -0.01370257 -0.01982963 -0.9277694 0.01418691 -0.999599 -0.02449458 0.09781855 0 0 0 1 0.9999889 -0.003445506 -0.003272056 -0.1956875 -0.003272473 -1.17518e-4 -0.9999946 0.9478928 0.003445088 0.999994 -1.28767e-4 -0.03820073 0 0 0 1 1 -2.65326e-7 -3.55688e-4 -0.197362 -3.55687e-4 -5.99376e-5 -1 0.5290749 2.32475e-7 1 -5.99124e-5 -0.03755688 0 0 0 1 1 -3.44491e-5 -1.3582e-4 -0.1974078 -1.15945e-4 0.3408783 -0.9401078 0.1885194 7.86726e-5 0.9401076 0.3408783 -0.1083266 0 0 0 1 0.9999889 0.003445506 0.003272056 0.1956875 0.003272473 -1.17516e-4 -0.9999947 0.9478929 -0.003445088 0.999994 -1.28765e-4 -0.03820073 0 0 0 1 1 2.61833e-7 3.55688e-4 0.197362 3.55686e-4 -5.99376e-5 -1 0.5290749 -2.213e-7 0.9999999 -5.99124e-5 -0.03755688 0 0 0 1 1 3.44457e-5 1.35819e-4 0.1974078 1.15947e-4 0.3408781 -0.9401077 0.1885194 -7.86617e-5 0.9401074 0.3408782 -0.1083266 0 0 0 1</float_array>
          <technique_common>
            <accessor source="#Mario_Rig_MarioNOHat-skin-bind_poses-array" count="19" stride="16">
              <param name="TRANSFORM" type="float4x4"/>
            </accessor>
          </technique_common>
        </source>
        <source id="Mario_Rig_MarioNOHat-skin-weights">
          <float_array id="Mario_Rig_MarioNOHat-skin-weights-array" count="24">1 1 1 1 1 1 1 1 1 1 1 1 1 1 1 1 1 1 1 1 1 1 1 1</float_array>
          <technique_common>
            <accessor source="#Mario_Rig_MarioNOHat-skin-weights-array" count="24" stride="1">
              <param name="WEIGHT" type="float"/>
            </accessor>
          </technique_common>
        </source>
        <joints>
          <input semantic="JOINT" source="#Mario_Rig_MarioNOHat-skin-joints"/>
          <input semantic="INV_BIND_MATRIX" source="#Mario_Rig_MarioNOHat-skin-bind_poses"/>
        </joints>
        <vertex_weights count="24">
          <input semantic="JOINT" source="#Mario_Rig_MarioNOHat-skin-joints" offset="0"/>
          <input semantic="WEIGHT" source="#Mario_Rig_MarioNOHat-skin-weights" offset="1"/>
          <vcount>1 1 1 1 1 1 1 1 1 1 1 1 1 1 1 1 1 1 1 1 1 1 1 1 </vcount>
          <v>2 0 2 1 2 2 2 3 2 4 2 5 2 6 2 7 2 8 2 9 2 10 2 11 2 12 2 13 2 14 2 15 2 16 2 17 2 18 2 19 2 20 2 21 2 22 2 23</v>
        </vertex_weights>
      </skin>
    </controller>
    <controller id="Mario_Rig_MarioBody-skin" name="Mario_Rig">
      <skin source="#LowPolyMario-mesh">
        <bind_shape_matrix>1 0 0 0 0 1 0 0 0 0 1 0 0 0 0 1</bind_shape_matrix>
        <source id="Mario_Rig_MarioBody-skin-joints">
          <Name_array id="Mario_Rig_MarioBody-skin-joints-array" count="19">Hips Chest Head wing_R wing_L shoulder_L upper_arm_L forearm_L hand_L shoulder_R upper_arm_R forearm_R hand_R thigh_L shin_L foot_L thigh_R shin_R foot_R</Name_array>
          <technique_common>
            <accessor source="#Mario_Rig_MarioBody-skin-joints-array" count="19" stride="1">
              <param name="JOINT" type="name"/>
            </accessor>
          </technique_common>
        </source>
        <source id="Mario_Rig_MarioBody-skin-bind_poses">
          <float_array id="Mario_Rig_MarioBody-skin-bind_poses-array" count="304">1 2.38419e-7 0 0 0 1.04904e-5 1 -0.8863624 2.38419e-7 -1 1.04652e-5 5.91697e-5 0 0 0 1 1 2.38419e-7 0 0 0 9.87177e-4 0.9999994 -1.205942 2.38419e-7 -0.9999995 9.87152e-4 -0.0011186 0 0 0 1 1 -4.81386e-6 8.44159e-5 -2.20021e-4 -8.43552e-5 0.0114662 0.9999343 -1.614466 -5.78148e-6 -0.9999343 0.0114662 -0.01807475 0 0 0 1 0.3444519 -0.6284778 0.6974014 -1.644837 -0.2507232 0.6542962 0.7134666 -1.636436 -0.9047049 -0.4206097 0.0677995 0.4819044 0 0 0 1 0.3444519 0.6284778 -0.6974012 1.644836 0.2507227 0.6542962 0.7134665 -1.636436 0.9047049 -0.4206092 0.06779992 0.4819033 0 0 0 1 0.3208453 -0.9375655 0.1342741 -0.3033897 0.945485 0.3254082 0.0129373 -0.342907 -0.0558235 0.1228033 0.9908598 -1.493022 0 0 0 1 -0.002152562 0.2038779 -0.9789938 1.480285 0.9999973 -2.52185e-5 -0.002204 -0.3680452 -4.73886e-4 -0.9789963 -0.2038773 0.3562133 0 0 0 1 0.002524495 -0.145688 -0.9893273 1.50923 0.9999964 -2.55817e-4 0.002589285 -0.6807603 -6.30181e-4 -0.9893305 0.1456869 -0.1746487 0 0 0 1 -0.01948606 0.02476799 -0.9995032 1.53783 0.9997094 -0.01370269 -0.01982969 -0.9278743 -0.01418691 -0.9995992 -0.02449369 0.09768748 0 0 0 1 0.3208452 0.9375654 -0.1342741 0.3033895 -0.9454851 0.3254082 0.0129373 -0.342907 0.05582344 0.1228032 0.9908598 -1.493022 0 0 0 1 -0.002152502 -0.2038787 0.9789937 -1.485468 -0.9999974 -2.52403e-5 -0.002203881 -0.3680337 4.74006e-4 -0.978996 -0.2038781 0.3572943 0 0 0 1 0.002524495 0.1456879 0.9893274 -1.514469 -0.9999964 -2.55709e-4 0.002589344 -0.6807742 6.3018e-4 -0.9893304 0.1456868 -0.1754201 0 0 0 1 -0.01948601 -0.02476876 0.9995032 -1.543123 -0.9997094 -0.01370257 -0.01982963 -0.9277694 0.01418691 -0.999599 -0.02449458 0.09781855 0 0 0 1 0.9999889 -0.003445506 -0.003272056 -0.1956875 -0.003272473 -1.17518e-4 -0.9999946 0.9478928 0.003445088 0.999994 -1.28767e-4 -0.03820073 0 0 0 1 1 -2.65326e-7 -3.55688e-4 -0.197362 -3.55687e-4 -5.99376e-5 -1 0.5290749 2.32475e-7 1 -5.99124e-5 -0.03755688 0 0 0 1 1 -3.44491e-5 -1.3582e-4 -0.1974078 -1.15945e-4 0.3408783 -0.9401078 0.1885194 7.86726e-5 0.9401076 0.3408783 -0.1083266 0 0 0 1 0.9999889 0.003445506 0.003272056 0.1956875 0.003272473 -1.17516e-4 -0.9999947 0.9478929 -0.003445088 0.999994 -1.28765e-4 -0.03820073 0 0 0 1 1 2.61833e-7 3.55688e-4 0.197362 3.55686e-4 -5.99376e-5 -1 0.5290749 -2.213e-7 0.9999999 -5.99124e-5 -0.03755688 0 0 0 1 1 3.44457e-5 1.35819e-4 0.1974078 1.15947e-4 0.3408781 -0.9401077 0.1885194 -7.86617e-5 0.9401074 0.3408782 -0.1083266 0 0 0 1</float_array>
          <technique_common>
            <accessor source="#Mario_Rig_MarioBody-skin-bind_poses-array" count="19" stride="16">
              <param name="TRANSFORM" type="float4x4"/>
            </accessor>
          </technique_common>
        </source>
        <source id="Mario_Rig_MarioBody-skin-weights">
          <float_array id="Mario_Rig_MarioBody-skin-weights-array" count="113">1 1 1 1 1 1 1 1 1 1 1 1 1 1 1 1 1 1 1 1 1 1 1 1 1 1 1 1 1 1 1 1 1 1 1 1 1 1 1 1 1 1 1 1 1 1 1 1 1 1 1 1 1 1 1 1 1 1 1 1 1 1 1 1 1 1 1 1 1 1 1 1 1 1 1 1 1 1 1 1 1 1 1 1 1 1 1 1 1 1 1 1 1 1 1 1 1 1 1 1 1 1 1 1 1 1 1 1 1 1 1 1 1</float_array>
          <technique_common>
            <accessor source="#Mario_Rig_MarioBody-skin-weights-array" count="113" stride="1">
              <param name="WEIGHT" type="float"/>
            </accessor>
          </technique_common>
        </source>
        <joints>
          <input semantic="JOINT" source="#Mario_Rig_MarioBody-skin-joints"/>
          <input semantic="INV_BIND_MATRIX" source="#Mario_Rig_MarioBody-skin-bind_poses"/>
        </joints>
        <vertex_weights count="113">
          <input semantic="JOINT" source="#Mario_Rig_MarioBody-skin-joints" offset="0"/>
          <input semantic="WEIGHT" source="#Mario_Rig_MarioBody-skin-weights" offset="1"/>
          <vcount>1 1 1 1 1 1 1 1 1 1 1 1 1 1 1 1 1 1 1 1 1 1 1 1 1 1 1 1 1 1 1 1 1 1 1 1 1 1 1 1 1 1 1 1 1 1 1 1 1 1 1 1 1 1 1 1 1 1 1 1 1 1 1 1 1 1 1 1 1 1 1 1 1 1 1 1 1 1 1 1 1 1 1 1 1 1 1 1 1 1 1 1 1 1 1 1 1 1 1 1 1 1 1 1 1 1 1 1 1 1 1 1 1 </vcount>
          <v>0 0 1 1 0 2 1 3 0 4 18 5 18 6 15 7 16 8 0 9 16 10 0 11 15 12 15 13 0 14 0 15 16 16 1 17 15 18 17 19 0 20 1 21 15 22 13 23 18 24 13 25 1 26 15 27 1 28 0 29 0 30 16 31 1 32 14 33 18 34 0 35 13 36 16 37 1 38 15 39 14 40 13 41 17 42 1 43 14 44 13 45 16 46 1 47 1 48 1 49 12 50 13 51 17 52 1 53 17 54 1 55 1 56 13 57 14 58 13 59 14 60 12 61 11 62 1 63 8 64 12 65 12 66 10 67 11 68 12 69 10 70 8 71 14 72 14 73 8 74 12 75 11 76 10 77 15 78 14 79 7 80 7 81 8 82 6 83 7 84 6 85 10 86 16 87 8 88 7 89 11 90 12 91 7 92 8 93 6 94 10 95 10 96 6 97 11 98 6 99 7 100 11 101 6 102 8 103 17 104 18 105 17 106 17 107 16 108 17 109 18 110 18 111 18 112</v>
        </vertex_weights>
      </skin>
    </controller>
  </library_controllers>
  <library_visual_scenes>
    <visual_scene id="Scene" name="Scene">
      <node id="Mario_Rig" name="Mario_Rig" type="NODE">
        <matrix sid="transform">1 0 0 0 0 1 0 0 0 0 1 0 0 0 0 1</matrix>
        <node id="Mario_Rig_Hips" name="Hips" sid="Hips" type="JOINT">
          <matrix sid="transform">1 0 2.38419e-7 0 2.38419e-7 1.04652e-5 -1 6.84456e-5 -2.49509e-12 1 1.04904e-5 0.8863624 0 0 0 1</matrix>
          <node id="Mario_Rig_Chest" name="Chest" sid="Chest" type="JOINT">
            <matrix sid="transform">1 2.3286e-10 1.68067e-13 0 -2.3286e-10 0.9999996 9.76686e-4 0.3195804 6.85912e-14 -9.76686e-4 0.9999995 0 0 0 0 1</matrix>
            <node id="Mario_Rig_Head" name="Head" sid="Head" type="JOINT">
              <matrix sid="transform">1 -8.43527e-5 -6.01988e-6 8.3728e-5 8.44111e-5 0.999945 0.01047912 0.4086239 5.13561e-6 -0.01047912 0.999945 3.69179e-5 0 0 0 1</matrix>
              <node id="Mario_Rig_wing_R" name="wing.R" sid="wing_R" type="JOINT">
                <matrix sid="transform">0.3445138 -0.2506662 -0.9046971 0.5922271 0.6901202 0.7209432 0.06304867 0.670063 0.6364309 -0.6460709 0.4213646 -0.231561 0 0 0 1</matrix>
                <extra>
                  <technique profile="blender">
                    <collections type="string">Torso</collections>
                    <roll sid="roll" type="float">-1.318942</roll>
                    <tip_x sid="tip_x" type="float">-0.0552482</tip_x>
                    <tip_y sid="tip_y" type="float">0.1441777</tip_y>
                    <tip_z sid="tip_z" type="float">0.1572163</tip_z>
                  </technique>
                </extra>
              </node>
              <node id="Mario_Rig_wing_L" name="wing.L" sid="wing_L" type="JOINT">
                <matrix sid="transform">0.34439 0.2507798 0.9047128 -0.592284 -0.6901783 0.7209011 0.06289638 0.670163 -0.636435 -0.646074 0.4213538 -0.2315542 0 0 0 1</matrix>
                <extra>
                  <technique profile="blender">
                    <collections type="string">Torso</collections>
                    <roll sid="roll" type="float">1.318941</roll>
                    <tip_x sid="tip_x" type="float">0.0552482</tip_x>
                    <tip_y sid="tip_y" type="float">0.1441777</tip_y>
                    <tip_z sid="tip_z" type="float">0.1572163</tip_z>
                  </technique>
                </extra>
              </node>
              <extra>
                <technique profile="blender">
                  <collections type="string">Torso</collections>
                  <roll sid="roll" type="float">-8.91749e-5</roll>
                  <tip_x sid="tip_x" type="float">-8.3728e-5</tip_x>
                  <tip_y sid="tip_y" type="float">0.01138091</tip_y>
                  <tip_z sid="tip_z" type="float">0.9924997</tip_z>
                </technique>
              </extra>
            </node>
            <node id="Mario_Rig_shoulder_L" name="shoulder.L" sid="shoulder_L" type="JOINT">
              <matrix sid="transform">0.3208449 0.9454853 -0.05582348 0.3382089 0.1333485 0.01325861 0.9909804 0.3186166 0.9376975 -0.3253951 -0.1218252 -0.01009888 0 0 0 1</matrix>
              <node id="Mario_Rig_upper_arm_L" name="upper_arm.L" sid="upper_arm_L" type="JOINT">
                <matrix sid="transform">-0.3232931 0.3205721 0.8903456 -0.02399184 0.05164272 0.9454463 -0.3216593 0.04319331 -0.9448887 -0.05801034 -0.3222115 -8.92516e-4 0 0 0 1</matrix>
                <node id="Mario_Rig_forearm_L" name="forearm.L" sid="forearm_L" type="JOINT">
                  <matrix sid="transform">0.9388374 -0.004739678 -0.3443279 9.96515e-8 0.004708604 0.9999883 -9.26468e-4 0.3054391 0.3443283 -7.51501e-4 0.938849 3.72529e-9 0 0 0 1</matrix>
                  <node id="Mario_Rig_hand_L" name="hand.L" sid="hand_L" type="JOINT">
                    <matrix sid="transform">0.9851784 0.02413807 0.1698262 -7.49715e-8 -0.02208042 0.9996581 -0.01399473 0.2821198 -0.170106 0.01003747 0.9853747 1.49012e-8 0 0 0 1</matrix>
                    <extra>
                      <technique profile="blender">
                        <connect sid="connect" type="bool">1</connect>
                        <collections type="string">Arm.L (IK)</collections>
                        <roll sid="roll" type="float">1.615402</roll>
                        <tip_x sid="tip_x" type="float">0.4118663</tip_x>
                        <tip_y sid="tip_y" type="float">-0.005645215</tip_y>
                        <tip_z sid="tip_z" type="float">-0.008169531</tip_z>
                      </technique>
                    </extra>
                  </node>
                  <extra>
                    <technique profile="blender">
                      <connect sid="connect" type="bool">1</connect>
                      <collections type="string">Arm.L (IK)</collections>
                      <roll sid="roll" type="float">1.421999</roll>
                    </technique>
                  </extra>
                </node>
                <extra>
                  <technique profile="blender">
                    <collections type="string">Arm.L (IK)</collections>
                    <roll sid="roll" type="float">1.778318</roll>
                  </technique>
                </extra>
              </node>
              <extra>
                <technique profile="blender">
                  <collections type="string">Torso</collections>
                  <roll sid="roll" type="float">-0.143922</roll>
                  <tip_x sid="tip_x" type="float">0.02909815</tip_x>
                  <tip_y sid="tip_y" type="float">0.01001471</tip_y>
                  <tip_z sid="tip_z" type="float">3.98159e-4</tip_z>
                </technique>
              </extra>
            </node>
            <node id="Mario_Rig_shoulder_R" name="shoulder.R" sid="shoulder_R" type="JOINT">
              <matrix sid="transform">0.3208454 -0.9454851 0.0558235 -0.3382089 -0.1333485 0.01325855 0.9909804 0.3186166 -0.9376975 -0.3253955 -0.1218251 -0.01009904 0 0 0 1</matrix>
              <node id="Mario_Rig_upper_arm_R" name="upper_arm.R" sid="upper_arm_R" type="JOINT">
                <matrix sid="transform">-0.3232938 -0.3205721 -0.8903453 0.02328077 -0.0516431 0.9454461 -0.3216592 0.04326186 0.9448884 -0.05801022 -0.3222122 0.004354391 0 0 0 1</matrix>
                <node id="Mario_Rig_forearm_R" name="forearm.R" sid="forearm_R" type="JOINT">
                  <matrix sid="transform">0.9388371 0.00473961 0.3443286 -5.30854e-8 -0.004708582 0.9999883 -9.26333e-4 0.3054391 -0.344329 -7.51624e-4 0.9388487 3.72529e-9 0 0 0 1</matrix>
                  <node id="Mario_Rig_hand_R" name="hand.R" sid="hand_R" type="JOINT">
                    <matrix sid="transform">0.9851782 -0.02413807 -0.1698269 -5.3551e-8 0.02208041 0.9996581 -0.01399474 0.2821198 0.1701067 0.01003747 0.9853745 1.11759e-8 0 0 0 1</matrix>
                    <extra>
                      <technique profile="blender">
                        <connect sid="connect" type="bool">1</connect>
                        <collections type="string">Arm.R (IK)</collections>
                        <roll sid="roll" type="float">-1.615403</roll>
                        <tip_x sid="tip_x" type="float">-0.4118663</tip_x>
                        <tip_y sid="tip_y" type="float">-0.005645215</tip_y>
                        <tip_z sid="tip_z" type="float">-0.008169531</tip_z>
                      </technique>
                    </extra>
                  </node>
                  <extra>
                    <technique profile="blender">
                      <connect sid="connect" type="bool">1</connect>
                      <collections type="string">Arm.R (IK)</collections>
                      <roll sid="roll" type="float">-1.421999</roll>
                    </technique>
                  </extra>
                </node>
                <extra>
                  <technique profile="blender">
                    <collections type="string">Arm.R (IK)</collections>
                    <roll sid="roll" type="float">-1.778319</roll>
                  </technique>
                </extra>
              </node>
              <extra>
                <technique profile="blender">
                  <collections type="string">Torso</collections>
                  <roll sid="roll" type="float">0.1439221</roll>
                  <tip_x sid="tip_x" type="float">-0.02909815</tip_x>
                  <tip_y sid="tip_y" type="float">0.01001471</tip_y>
                  <tip_z sid="tip_z" type="float">3.98159e-4</tip_z>
                </technique>
              </extra>
            </node>
            <extra>
              <technique profile="blender">
                <connect sid="connect" type="bool">1</connect>
                <collections type="string">Torso</collections>
                <roll sid="roll" type="float">2.38419e-7</roll>
                <tip_x sid="tip_x" type="float">0</tip_x>
                <tip_y sid="tip_y" type="float">3.2821e-4</tip_y>
                <tip_z sid="tip_z" type="float">0.3324816</tip_z>
              </technique>
            </extra>
          </node>
          <node id="Mario_Rig_thigh_L" name="thigh.L" sid="thigh_L" type="JOINT">
            <matrix sid="transform">0.9999886 -0.003272508 0.003445365 0.1989189 -0.003272118 -0.9999946 -1.18302e-4 0.06088046 0.003445722 1.07027e-4 -0.9999941 -0.03756855 0 0 0 1</matrix>
            <node id="Mario_Rig_shin_L" name="shin.L" sid="shin_L" type="JOINT">
              <matrix sid="transform">0.9999898 0.002916605 -0.00344509 1.49012e-8 -0.002916822 0.9999957 -5.75812e-5 0.4182424 0.003444907 6.76293e-5 0.999994 3.72529e-9 0 0 0 1</matrix>
              <node id="Mario_Rig_foot_L" name="foot.L" sid="foot_L" type="JOINT">
                <matrix sid="transform">1 2.18352e-4 -4.28118e-5 1.49012e-8 -2.19866e-4 0.9400869 -0.3409345 0.3148745 -3.4197e-5 0.3409345 0.940087 0 0 0 0 1</matrix>
                <extra>
                  <technique profile="blender">
                    <connect sid="connect" type="bool">1</connect>
                    <collections type="string">Leg.L (IK)</collections>
                    <roll sid="roll" type="float">1.59973e-4</roll>
                    <tip_x sid="tip_x" type="float">-2.31713e-5</tip_x>
                    <tip_y sid="tip_y" type="float">0.06812506</tip_y>
                    <tip_z sid="tip_z" type="float">-0.187882</tip_z>
                  </technique>
                </extra>
              </node>
              <extra>
                <technique profile="blender">
                  <connect sid="connect" type="bool">1</connect>
                  <collections type="string">Leg.L (IK)</collections>
                  <roll sid="roll" type="float">3.55953e-4</roll>
                </technique>
              </extra>
            </node>
            <extra>
              <technique profile="blender">
                <collections type="string">Leg.L (IK)</collections>
                <roll sid="roll" type="float">0.006718039</roll>
              </technique>
            </extra>
          </node>
          <node id="Mario_Rig_thigh_R" name="thigh.R" sid="thigh_R" type="JOINT">
            <matrix sid="transform">0.9999886 0.003272508 -0.003444895 -0.1989188 0.003272118 -0.9999946 -1.183e-4 0.06088046 -0.003445245 1.07027e-4 -0.9999942 -0.03756865 0 0 0 1</matrix>
            <node id="Mario_Rig_shin_R" name="shin.R" sid="shin_R" type="JOINT">
              <matrix sid="transform">0.9999898 -0.002916606 0.003445101 0 0.002916822 0.9999958 -5.75796e-5 0.4182424 -0.003444918 6.76277e-5 0.9999941 3.72529e-9 0 0 0 1</matrix>
              <node id="Mario_Rig_foot_R" name="foot.R" sid="foot_R" type="JOINT">
                <matrix sid="transform">1 -2.18353e-4 4.28121e-5 0 2.19867e-4 0.9400869 -0.3409345 0.3148745 3.4197e-5 0.3409345 0.9400871 0 0 0 0 1</matrix>
                <extra>
                  <technique profile="blender">
                    <connect sid="connect" type="bool">1</connect>
                    <collections type="string">Leg.R (IK)</collections>
                    <roll sid="roll" type="float">-1.59969e-4</roll>
                    <tip_x sid="tip_x" type="float">2.31713e-5</tip_x>
                    <tip_y sid="tip_y" type="float">0.06812506</tip_y>
                    <tip_z sid="tip_z" type="float">-0.187882</tip_z>
                  </technique>
                </extra>
              </node>
              <extra>
                <technique profile="blender">
                  <connect sid="connect" type="bool">1</connect>
                  <collections type="string">Leg.R (IK)</collections>
                  <roll sid="roll" type="float">-3.55949e-4</roll>
                </technique>
              </extra>
            </node>
            <extra>
              <technique profile="blender">
                <collections type="string">Leg.R (IK)</collections>
                <roll sid="roll" type="float">-0.006718039</roll>
              </technique>
            </extra>
          </node>
          <extra>
            <technique profile="blender">
              <collections type="string">Torso</collections>
              <roll sid="roll" type="float">2.38419e-7</roll>
            </technique>
          </extra>
        </node>
        <node id="MarioBody" name="MarioBody" type="NODE">
          <matrix sid="transform">1 0 0 0 0 1 0 0 0 0 1 0 0 0 0 1</matrix>
          <instance_controller url="#Mario_Rig_MarioBody-skin">
            <skeleton>#Mario_Rig_Hips</skeleton>
            <bind_material>
              <technique_common>
                <instance_material symbol="Eyes-material" target="#Eyes-material">
                  <bind_vertex_input semantic="UVMap" input_semantic="TEXCOORD" input_set="0"/>
                </instance_material>
                <instance_material symbol="Mustache-material" target="#Mustache-material">
                  <bind_vertex_input semantic="UVMap" input_semantic="TEXCOORD" input_set="0"/>
                </instance_material>
                <instance_material symbol="Hair-material" target="#Hair-material">
                  <bind_vertex_input semantic="UVMap" input_semantic="TEXCOORD" input_set="0"/>
                </instance_material>
                <instance_material symbol="Overalls-material" target="#Overalls-material">
                  <bind_vertex_input semantic="UVMap" input_semantic="TEXCOORD" input_set="0"/>
                </instance_material>
                <instance_material symbol="Logo-material" target="#Logo-material">
                  <bind_vertex_input semantic="UVMap" input_semantic="TEXCOORD" input_set="0"/>
                </instance_material>
                <instance_material symbol="Gloves-material" target="#Gloves-material">
                  <bind_vertex_input semantic="UVMap" input_semantic="TEXCOORD" input_set="0"/>
                </instance_material>
                <instance_material symbol="Shoes-material" target="#Shoes-material">
                  <bind_vertex_input semantic="UVMap" input_semantic="TEXCOORD" input_set="0"/>
                </instance_material>
                <instance_material symbol="Wing-material" target="#Wing-material">
                  <bind_vertex_input semantic="UVMap" input_semantic="TEXCOORD" input_set="0"/>
                </instance_material>
                <instance_material symbol="Wing2-material" target="#Wing2-material">
                  <bind_vertex_input semantic="UVMap" input_semantic="TEXCOORD" input_set="0"/>
                </instance_material>
              </technique_common>
            </bind_material>
          </instance_controller>
        </node>
        <node id="MarioNOHat" name="MarioNOHat" type="NODE">
          <matrix sid="transform">1 0 0 0 0 1 0 0 0 0 1 0 0 0 0 1</matrix>
          <instance_controller url="#Mario_Rig_MarioNOHat-skin">
            <skeleton>#Mario_Rig_Hips</skeleton>
            <bind_material>
              <technique_common>
                <instance_material symbol="Eyes-material" target="#Eyes-material">
                  <bind_vertex_input semantic="UVMap" input_semantic="TEXCOORD" input_set="0"/>
                </instance_material>
                <instance_material symbol="Mustache-material" target="#Mustache-material">
                  <bind_vertex_input semantic="UVMap" input_semantic="TEXCOORD" input_set="0"/>
                </instance_material>
                <instance_material symbol="Hair-material" target="#Hair-material">
                  <bind_vertex_input semantic="UVMap" input_semantic="TEXCOORD" input_set="0"/>
                </instance_material>
                <instance_material symbol="Overalls-material" target="#Overalls-material">
                  <bind_vertex_input semantic="UVMap" input_semantic="TEXCOORD" input_set="0"/>
                </instance_material>
                <instance_material symbol="Logo-material" target="#Logo-material">
                  <bind_vertex_input semantic="UVMap" input_semantic="TEXCOORD" input_set="0"/>
                </instance_material>
                <instance_material symbol="Gloves-material" target="#Gloves-material">
                  <bind_vertex_input semantic="UVMap" input_semantic="TEXCOORD" input_set="0"/>
                </instance_material>
                <instance_material symbol="Shoes-material" target="#Shoes-material">
                  <bind_vertex_input semantic="UVMap" input_semantic="TEXCOORD" input_set="0"/>
                </instance_material>
                <instance_material symbol="Wing-material" target="#Wing-material">
                  <bind_vertex_input semantic="UVMap" input_semantic="TEXCOORD" input_set="0"/>
                </instance_material>
                <instance_material symbol="Wing2-material" target="#Wing2-material">
                  <bind_vertex_input semantic="UVMap" input_semantic="TEXCOORD" input_set="0"/>
                </instance_material>
              </technique_common>
            </bind_material>
          </instance_controller>
        </node>
        <node id="MarioHead" name="MarioHead" type="NODE">
          <matrix sid="transform">1 0 0 0 0 1 0 0 0 0 1 0 0 0 0 1</matrix>
          <instance_controller url="#Mario_Rig_MarioHead-skin">
            <skeleton>#Mario_Rig_Hips</skeleton>
            <bind_material>
              <technique_common>
                <instance_material symbol="Eyes-material" target="#Eyes-material">
                  <bind_vertex_input semantic="UVMap" input_semantic="TEXCOORD" input_set="0"/>
                </instance_material>
                <instance_material symbol="Mustache-material" target="#Mustache-material">
                  <bind_vertex_input semantic="UVMap" input_semantic="TEXCOORD" input_set="0"/>
                </instance_material>
                <instance_material symbol="Hair-material" target="#Hair-material">
                  <bind_vertex_input semantic="UVMap" input_semantic="TEXCOORD" input_set="0"/>
                </instance_material>
                <instance_material symbol="Overalls-material" target="#Overalls-material">
                  <bind_vertex_input semantic="UVMap" input_semantic="TEXCOORD" input_set="0"/>
                </instance_material>
                <instance_material symbol="Logo-material" target="#Logo-material">
                  <bind_vertex_input semantic="UVMap" input_semantic="TEXCOORD" input_set="0"/>
                </instance_material>
                <instance_material symbol="Gloves-material" target="#Gloves-material">
                  <bind_vertex_input semantic="UVMap" input_semantic="TEXCOORD" input_set="0"/>
                </instance_material>
                <instance_material symbol="Shoes-material" target="#Shoes-material">
                  <bind_vertex_input semantic="UVMap" input_semantic="TEXCOORD" input_set="0"/>
                </instance_material>
                <instance_material symbol="Wing-material" target="#Wing-material">
                  <bind_vertex_input semantic="UVMap" input_semantic="TEXCOORD" input_set="0"/>
                </instance_material>
                <instance_material symbol="Wing2-material" target="#Wing2-material">
                  <bind_vertex_input semantic="UVMap" input_semantic="TEXCOORD" input_set="0"/>
                </instance_material>
              </technique_common>
            </bind_material>
          </instance_controller>
        </node>
        <node id="MarioWings" name="MarioWings" type="NODE">
          <matrix sid="transform">1 0 0 0 0 1 0 0 0 0 1 0 0 0 0 1</matrix>
          <instance_controller url="#Mario_Rig_MarioWings-skin">
            <skeleton>#Mario_Rig_Hips</skeleton>
            <bind_material>
              <technique_common>
                <instance_material symbol="Eyes-material" target="#Eyes-material">
                  <bind_vertex_input semantic="UVMap" input_semantic="TEXCOORD" input_set="0"/>
                </instance_material>
                <instance_material symbol="Mustache-material" target="#Mustache-material">
                  <bind_vertex_input semantic="UVMap" input_semantic="TEXCOORD" input_set="0"/>
                </instance_material>
                <instance_material symbol="Hair-material" target="#Hair-material">
                  <bind_vertex_input semantic="UVMap" input_semantic="TEXCOORD" input_set="0"/>
                </instance_material>
                <instance_material symbol="Overalls-material" target="#Overalls-material">
                  <bind_vertex_input semantic="UVMap" input_semantic="TEXCOORD" input_set="0"/>
                </instance_material>
                <instance_material symbol="Logo-material" target="#Logo-material">
                  <bind_vertex_input semantic="UVMap" input_semantic="TEXCOORD" input_set="0"/>
                </instance_material>
                <instance_material symbol="Gloves-material" target="#Gloves-material">
                  <bind_vertex_input semantic="UVMap" input_semantic="TEXCOORD" input_set="0"/>
                </instance_material>
                <instance_material symbol="Shoes-material" target="#Shoes-material">
                  <bind_vertex_input semantic="UVMap" input_semantic="TEXCOORD" input_set="0"/>
                </instance_material>
                <instance_material symbol="Wing-material" target="#Wing-material">
                  <bind_vertex_input semantic="UVMap" input_semantic="TEXCOORD" input_set="0"/>
                </instance_material>
                <instance_material symbol="Wing2-material" target="#Wing2-material">
                  <bind_vertex_input semantic="UVMap" input_semantic="TEXCOORD" input_set="0"/>
                </instance_material>
              </technique_common>
            </bind_material>
          </instance_controller>
        </node>
        <extra>
          <technique profile="blender">
            <collections sid="collections" type="string">Torso
Torso (Tweak)
Arm.L (IK)
Arm.L (FK)
Arm.L (Tweak)
Arm.R (IK)
Arm.R (FK)
Arm.R (Tweak)
Leg.L (IK)
Leg.L (FK)
Leg.L (Tweak)
Leg.R (IK)
Leg.R (FK)
Leg.R (Tweak)
Root</collections>
            <visible_collections sid="visible_collections" type="string">Torso
Torso (Tweak)
Arm.L (IK)
Arm.L (FK)
Arm.L (Tweak)
Arm.R (IK)
Arm.R (FK)
Arm.R (Tweak)
Leg.L (IK)
Leg.L (FK)
Leg.L (Tweak)
Leg.R (IK)
Leg.R (FK)
Leg.R (Tweak)
Root</visible_collections>
            <active_collection sid="active_collection" type="string">Torso</active_collection>
          </technique>
        </extra>
      </node>
    </visual_scene>
  </library_visual_scenes>
  <scene>
    <instance_visual_scene url="#Scene"/>
  </scene>
</COLLADA>